<?xml version="1.0" encoding="utf-8"?>
<svg width="250px" height="200px" viewbox="0 0 250 200" version="1.1" xmlns:xlink="http://www.w3.org/1999/xlink" xmlns="http://www.w3.org/2000/svg">
    <defs>
        <path d="M12.4016 8.37105e-11L69.5984 8.35657e-11Q69.7151 8.35654e-11 69.8315 0.00906967Q69.9478 0.0181393 70.0631 0.0362238Q70.1784 0.0543083 70.292 0.0812982Q70.4055 0.108288 70.5166 0.14402Q70.6277 0.179752 70.7357 0.22401Q70.8437 0.268268 70.9479 0.320785Q71.0521 0.373301 71.152 0.433759Q71.2518 0.494216 71.3466 0.562248Q71.4415 0.63028 71.5307 0.705476Q71.62 0.780672 71.7031 0.862576Q71.7862 0.944481 71.8628 1.0326Q71.9393 1.12072 72.0087 1.21451Q72.0782 1.30831 72.1401 1.40722Q72.2021 1.50614 72.2561 1.60956Q72.3102 1.71299 72.3561 1.8203Q72.4019 1.92762 72.4393 2.03817L82 30.3066L82 57.001Q82 57.1483 81.9856 57.295Q81.9711 57.4416 81.9424 57.5861Q81.9136 57.7306 81.8709 57.8716Q81.8281 58.0125 81.7717 58.1487Q81.7153 58.2848 81.6459 58.4147Q81.5764 58.5447 81.4946 58.6672Q81.4127 58.7897 81.3193 58.9035Q81.2258 59.0174 81.1216 59.1216Q81.0174 59.2258 80.9035 59.3193Q80.7897 59.4127 80.6671 59.4946Q80.5446 59.5764 80.4147 59.6459Q80.2848 59.7153 80.1487 59.7717Q80.0126 59.8281 79.8716 59.8709Q79.7306 59.9136 79.5861 59.9424Q79.4416 59.9711 79.295 59.9856Q79.1483 60 79.001 60L2.999 60Q2.85167 60 2.70505 59.9856Q2.55842 59.9711 2.41392 59.9424Q2.26942 59.9136 2.12844 59.8709Q1.98745 59.8281 1.85133 59.7717Q1.71522 59.7153 1.58528 59.6459Q1.45535 59.5764 1.33284 59.4946Q1.21034 59.4127 1.09645 59.3193Q0.982566 59.2258 0.878387 59.1216Q0.774208 59.0174 0.680742 58.9035Q0.587276 58.7897 0.505423 58.6672Q0.42357 58.5447 0.354118 58.4147Q0.284667 58.2848 0.228285 58.1487Q0.171904 58.0125 0.129136 57.8716Q0.0863679 57.7306 0.0576249 57.5861Q0.028882 57.4416 0.014441 57.295Q2.18315e-11 57.1483 2.18332e-11 57.001L2.21412e-11 30.3066L9.56067 2.03817Q9.59806 1.92762 9.64393 1.8203Q9.6898 1.71299 9.74387 1.60956Q9.79794 1.50614 9.85988 1.40722Q9.92183 1.30831 9.99127 1.21451Q10.0607 1.12072 10.1372 1.0326Q10.2138 0.944481 10.2969 0.862576Q10.38 0.780672 10.4693 0.705476Q10.5585 0.63028 10.6534 0.562248Q10.7482 0.494216 10.848 0.433759Q10.9479 0.373301 11.0521 0.320785Q11.1563 0.268268 11.2643 0.22401Q11.3723 0.179752 11.4834 0.14402Q11.5945 0.108288 11.708 0.0812982Q11.8216 0.0543083 11.9369 0.0362238Q12.0522 0.0181393 12.1685 0.00906967Q12.2849 8.37108e-11 12.4016 8.37105e-11Z" transform="translate(89 82)" id="path_1" />
        <clipPath id="clip_1">
            <use xlink:href="#path_1" />
        </clipPath>
    </defs>
    <g id="EmptyState">
        <path d="M46 70L129 70C132.866 70 136 66.866 136 63C136 59.134 132.866 56 129 56C129 56 123 52.866 123 49C123 45.134 126.952 42 131.826 42L142 42C145.866 42 149 38.866 149 35C149 31.134 145.866 28 142 28L120 28C123.866 28 127 24.866 127 21C127 17.134 123.866 14 120 14L160 14C163.866 14 167 10.866 167 7C167 3.13401 163.866 0 160 0L62 0C58.134 0 55 3.13401 55 7C55 10.866 58.134 14 62 14L22 14C18.134 14 15 17.134 15 21C15 24.866 18.134 28 22 28L47 28C50.866 28 54 31.134 54 35C54 38.866 50.866 42 47 42L7 42C3.13401 42 0 45.134 0 49C0 52.866 3.13401 56 7 56L46 56C42.134 56 39 59.134 39 63C39 66.866 42.134 70 46 70ZM153 35C153 38.866 156.134 42 160 42C163.866 42 167 38.866 167 35C167 31.134 163.866 28 160 28C156.134 28 153 31.134 153 35Z" transform="translate(47 65)" id="Background" fill="#F3F7FF" fill-rule="evenodd" stroke="none" />
        <path d="M29.1185 0C29.0404 0.553228 29 1.11858 29 1.69337C29 8.32079 34.3726 13.6934 41 13.6934C47.6274 13.6934 53 8.32079 53 1.69337C53 1.11858 52.9596 0.553228 52.8815 0L82 0L82 26.6934C82 28.3502 80.6569 29.6934 79 29.6934L3 29.6934C1.34315 29.6934 0 28.3502 0 26.6934L0 0L29.1185 0Z" transform="translate(89 113.306625)" id="Path" fill="#FFFFFF" fill-rule="evenodd" stroke="none" />
        <path d="M54 31C54 38.1797 48.1797 44 41 44C33.8203 44 28 38.1797 28 31C28 30.7674 28.0061 30.5362 28.0182 30.3066L0 30.3066L9.56044 2.03885C9.9726 0.820211 11.1159 1.42109e-13 12.4023 1.42109e-13L69.5977 0C70.8841 0 72.0274 0.820211 72.4396 2.03885L82 30.3066L53.9818 30.3066C53.9939 30.5362 54 30.7674 54 31Z" transform="translate(89 82)" id="Path" fill="#FFFFFF" fill-rule="evenodd" stroke="none" />
        <path d="M43.0976 22.9545C43.0976 28.5025 38.129 34 32 34C25.871 34 20.9024 28.5025 20.9024 22.9545C20.9024 22.7748 20.9077 21.5962 20.918 21.4188L0 21.4188L8.16135 1.57548C8.51319 0.633799 9.48914 0 10.5873 0L53.4127 0C54.5109 0 55.4868 0.633799 55.8386 1.57548L64 21.4188L43.082 21.4188C43.0923 21.5962 43.0976 22.7748 43.0976 22.9545Z" transform="translate(98 91)" id="Path" fill="#E8F0FE" fill-rule="evenodd" stroke="none" />
        <g id="Rectangle">
            <g clip-path="url(#clip_1)">
                <use xlink:href="#path_1" fill="none" stroke="#75A4FE" stroke-width="5" stroke-linejoin="round" />
            </g>
        </g>
        <path d="M9.69225e-14 0L2.42627 0L9.69225e-14 0ZM7.42627 0C7.42627 0 13.3311 0 20.1712 0C22.0475 0 22.0475 1.31858 22.0475 2C22.0475 8.62742 27.5437 14 34.3235 14C41.1034 14 46.5996 8.62742 46.5996 2C46.5996 1.31858 46.5996 0 48.4759 0L73.4263 0" transform="translate(95.57373 112)" id="Shape" fill="none" fill-rule="evenodd" stroke="#75A4FE" stroke-width="2.5" stroke-linecap="round" stroke-linejoin="round" />
        <path d="M26.0996 0L26.0996 16.7559M0 4.30273L11.0996 16.7559M52.0996 4.30273L41 16.7559" transform="translate(103 55)" id="lines" fill="none" fill-rule="evenodd" stroke="#A4C3FE" stroke-width="2.5" stroke-linecap="round" stroke-linejoin="round" />
    </g>
</svg>
