<?xml version="1.0" encoding="utf-8"?>
<svg width="250px" height="200px" viewbox="0 0 250 200" version="1.1" xmlns:xlink="http://www.w3.org/1999/xlink" xmlns="http://www.w3.org/2000/svg">
    <g id="EmptyState">
        <path d="M46 70L137 70C137.515 70 138.017 69.9444 138.5 69.8389C138.983 69.9444 139.485 70 140 70L192 70C195.866 70 199 66.866 199 63C199 59.134 195.866 56 192 56L186 56C182.134 56 179 52.866 179 49C179 45.134 182.134 42 186 42L205 42C208.866 42 212 38.866 212 35C212 31.134 208.866 28 205 28L183 28C186.866 28 190 24.866 190 21C190 17.134 186.866 14 183 14L119 14C122.866 14 126 10.866 126 7C126 3.13401 122.866 0 119 0L62 0C58.134 0 55 3.13401 55 7C55 10.866 58.134 14 62 14L22 14C18.134 14 15 17.134 15 21C15 24.866 18.134 28 22 28L47 28C50.866 28 54 31.134 54 35C54 38.866 50.866 42 47 42L7 42C3.13401 42 0 45.134 0 49C0 52.866 3.13401 56 7 56L46 56C42.134 56 39 59.134 39 63C39 66.866 42.134 70 46 70ZM216 63C216 66.866 212.866 70 209 70C205.134 70 202 66.866 202 63C202 59.134 205.134 56 209 56C212.866 56 216 59.134 216 63Z" transform="translate(17 64)" id="Background" fill="#F3F7FF" fill-rule="evenodd" stroke="none" />
        <path d="M93.5767 77.0748C91.1432 79.0342 88.4878 80.8097 85.6441 82.3737L85.8086 96.457C85.8215 97.5615 84.9366 98.4674 83.8321 98.4803C83.383 98.4855 82.9452 98.3394 82.5892 98.0655L69.9264 88.3231C65.18 89.4156 60.1734 90 55 90C24.6243 90 0 69.8528 0 45C0 20.1472 24.6243 0 55 0C85.3757 0 110 20.1472 110 45C110 51.8787 108.114 58.397 104.741 64.2274C104.119 65.3027 103.446 66.3546 102.726 67.381M100.193 70.6541C99.2791 71.7298 98.3093 72.7712 97.2871 73.7757" transform="translate(75 49)" id="Shape" fill="#FFFFFF" fill-rule="evenodd" stroke="#75A4FE" stroke-width="2.5" stroke-linecap="round" />
        <path d="M12 6C12 9.31371 9.31371 12 6 12C2.68629 12 0 9.31371 0 6C0 2.68629 2.68629 0 6 0C9.31371 0 12 2.68629 12 6ZM31 6C31 9.31371 28.3137 12 25 12C21.6863 12 19 9.31371 19 6C19 2.68629 21.6863 0 25 0C28.3137 0 31 2.68629 31 6ZM50 6C50 9.31371 47.3137 12 44 12C40.6863 12 38 9.31371 38 6C38 2.68629 40.6863 0 44 0C47.3137 0 50 2.68629 50 6Z" transform="translate(104 88)" id="Shape" fill="#E8F0FE" fill-rule="evenodd" stroke="#75A4FE" stroke-width="2.5" />
        <path d="M2.35034 0C1.44235 1.53193 0.655465 3.12177 -2.87412e-16 4.761" transform="translate(87.31177 79.31112)" id="Line" fill="none" fill-rule="evenodd" stroke="#A4C3FE" stroke-width="2.5" stroke-linecap="round" />
        <path d="M16.0827 0C9.53001 3.12732 3.99783 7.55116 0 12.8471" transform="translate(91.93928 63.073215)" id="Line" fill="none" fill-rule="evenodd" stroke="#A4C3FE" stroke-width="2.5" stroke-linecap="round" />
    </g>
</svg>
