<?xml version="1.0" encoding="utf-8"?>
<svg width="250px" height="200px" viewbox="0 0 250 200" version="1.1" xmlns:xlink="http://www.w3.org/1999/xlink" xmlns="http://www.w3.org/2000/svg">
    <defs>
        <path d="M3.999 1.19904e-14L49.5572 1.19904e-14Q49.9509 1.19904e-14 50.337 0.0767793Q50.7232 0.153559 51.087 0.304169Q51.4507 0.45478 51.7781 0.673438Q52.1055 0.892096 52.384 1.17041L65.8278 14.6059Q66.1065 14.8844 66.3255 15.212Q66.5445 15.5396 66.6954 15.9036Q66.8462 16.2676 66.9231 16.654Q67 17.0405 67 17.4345L67 80.001Q67 80.1975 66.9807 80.393Q66.9615 80.5885 66.9232 80.7812Q66.8848 80.9738 66.8278 81.1618Q66.7708 81.3498 66.6956 81.5313Q66.6204 81.7129 66.5278 81.8861Q66.4352 82.0594 66.326 82.2227Q66.2169 82.3861 66.0923 82.5379Q65.9676 82.6898 65.8287 82.8287Q65.6898 82.9676 65.5379 83.0923Q65.3861 83.2169 65.2227 83.326Q65.0594 83.4352 64.8861 83.5278Q64.7128 83.6204 64.5313 83.6956Q64.3498 83.7708 64.1618 83.8278Q63.9738 83.8848 63.7812 83.9232Q63.5885 83.9615 63.393 83.9808Q63.1975 84 63.001 84L3.999 84Q3.80254 84 3.60703 83.9808Q3.41152 83.9615 3.21883 83.9232Q3.02615 83.8848 2.83815 83.8278Q2.65015 83.7708 2.46865 83.6956Q2.28715 83.6204 2.11388 83.5278Q1.94062 83.4352 1.77727 83.326Q1.61393 83.2169 1.46206 83.0923Q1.3102 82.9676 1.17128 82.8287Q1.03236 82.6898 0.907731 82.5379Q0.783099 82.3861 0.673953 82.2227Q0.564807 82.0594 0.472197 81.8861Q0.379587 81.7129 0.304406 81.5313Q0.229224 81.3498 0.172196 81.1618Q0.115167 80.9738 0.0768396 80.7812Q0.0385126 80.5885 0.0192563 80.393Q1.049e-15 80.1975 1.05731e-15 80.001L4.27176e-15 3.999Q4.28007e-15 3.80254 0.0192563 3.60703Q0.0385126 3.41152 0.0768396 3.21883Q0.115167 3.02615 0.172196 2.83815Q0.229224 2.65015 0.304406 2.46865Q0.379587 2.28715 0.472197 2.11388Q0.564807 1.94062 0.673953 1.77727Q0.783099 1.61393 0.907731 1.46206Q1.03236 1.3102 1.17128 1.17128Q1.3102 1.03236 1.46206 0.907731Q1.61393 0.783099 1.77727 0.673953Q1.94062 0.564807 2.11388 0.472197Q2.28715 0.379587 2.46865 0.304406Q2.65015 0.229224 2.83815 0.172196Q3.02615 0.115167 3.21883 0.0768396Q3.41152 0.0385126 3.60703 0.0192563Q3.80254 1.19904e-14 3.999 1.19904e-14Z" transform="translate(106.671875 50)" id="path_1" />
        <clipPath id="clip_1">
            <use xlink:href="#path_1" />
        </clipPath>
    </defs>
    <g id="EmptyState">
        <path d="M46 70L129 70C132.866 70 136 66.866 136 63C136 59.134 132.866 56 129 56C129 56 123 52.866 123 49C123 45.134 126.952 42 131.826 42L142 42C145.866 42 149 38.866 149 35C149 31.134 145.866 28 142 28L120 28C123.866 28 127 24.866 127 21C127 17.134 123.866 14 120 14L160 14C163.866 14 167 10.866 167 7C167 3.13401 163.866 0 160 0L62 0C58.134 0 55 3.13401 55 7C55 10.866 58.134 14 62 14L22 14C18.134 14 15 17.134 15 21C15 24.866 18.134 28 22 28L47 28C50.866 28 54 31.134 54 35C54 38.866 50.866 42 47 42L7 42C3.13401 42 0 45.134 0 49C0 52.866 3.13401 56 7 56L46 56C42.134 56 39 59.134 39 63C39 66.866 42.134 70 46 70ZM153 35C153 38.866 156.134 42 160 42C163.866 42 167 38.866 167 35C167 31.134 163.866 28 160 28C156.134 28 153 31.134 153 35Z" transform="translate(47 65)" id="Background" fill="#F3F7FF" fill-rule="evenodd" stroke="none" />
        <path d="M66.0354 0.65088L67 69.1215L67 75.979C67 78.1881 65.2091 79.979 63 79.979L4 79.979C1.79086 79.979 -1.42109e-12 78.1881 0 75.979L0 2C0 0.895431 0.895431 0 2 0C2.00698 0 2.01395 3.65132e-05 2.02093 0.000109538L6.9095 0.0512757M10.8625 0.0926059L15.4781 0.140915" transform="matrix(0.99254614 -0.12186935 0.12186935 0.99254614 88.04938 71.40167)" id="Shape" fill="#FFFFFF" fill-rule="evenodd" stroke="#75A4FE" stroke-width="2.5" stroke-linecap="round" />
        <path d="M59.1362 0.60893C59.1362 0.60893 60 62.6605 60 62.6605C60 62.6605 60 68.875 60 68.875C60 70.877 58.3962 72.5 56.4179 72.5C56.4179 72.5 3.58209 72.5 3.58209 72.5C1.60376 72.5 1.98846e-16 70.877 1.98846e-16 68.875L1.98846e-16 1.999C1.98846e-16 0.894983 0.894983 0 1.999 0L8.53632 0" transform="matrix(0.99254614 -0.12186935 0.12186935 0.99254614 92.370415 74.87169)" id="Rectangle" fill="#E8F0FE" fill-rule="evenodd" stroke="none" />
        <g id="Rectangle">
            <use stroke="none" fill="#FFFFFF" xlink:href="#path_1" fill-rule="evenodd" />
            <g clip-path="url(#clip_1)">
                <use xlink:href="#path_1" fill="none" stroke="#75A4FE" stroke-width="5" />
            </g>
        </g>
        <path d="M0 0L0 11.5972C0 13.254 1.34315 14.5972 3 14.5972L10.9336 14.5972" transform="translate(156.67188 52.402832)" id="Shape" fill="none" fill-rule="evenodd" stroke="#75A4FE" stroke-width="2.5" stroke-linecap="round" stroke-linejoin="round" />
        <path d="M1.55905e-15 0.5L26 0.5M0 12.5L43 12.5M0 25.5L43 25.5M0 38.5L43 38.5M0 51.5L26 51.5" transform="translate(118.671875 66.5)" id="lines" fill="none" fill-rule="evenodd" stroke="#A4C3FE" stroke-width="2.5" stroke-linecap="round" stroke-linejoin="round" />
    </g>
</svg>
