<?xml version="1.0" encoding="utf-8"?>
<svg width="250px" height="200px" viewbox="0 0 250 200" version="1.1" xmlns:xlink="http://www.w3.org/1999/xlink" xmlns="http://www.w3.org/2000/svg">
    <defs>
        <path d="M3.999 5.16491e-17L83.001 1.072e-15Q83.1975 1.07454e-15 83.393 0.0192563Q83.5885 0.0385126 83.7812 0.0768396Q83.9738 0.115167 84.1618 0.172196Q84.3498 0.229224 84.5313 0.304406Q84.7129 0.379587 84.8861 0.472197Q85.0594 0.564807 85.2227 0.673953Q85.3861 0.783099 85.5379 0.907731Q85.6898 1.03236 85.8287 1.17128Q85.9676 1.3102 86.0923 1.46206Q86.2169 1.61393 86.326 1.77727Q86.4352 1.94062 86.5278 2.11388Q86.6204 2.28715 86.6956 2.46865Q86.7708 2.65015 86.8278 2.83815Q86.8848 3.02615 86.9231 3.21883Q86.9615 3.41152 86.9807 3.60703Q87 3.80254 87 3.999L87 84.001Q87 84.1975 86.9807 84.393Q86.9615 84.5885 86.9231 84.7812Q86.8848 84.9738 86.8278 85.1618Q86.7708 85.3498 86.6956 85.5313Q86.6204 85.7128 86.5278 85.8861Q86.4352 86.0594 86.326 86.2227Q86.2169 86.3861 86.0923 86.5379Q85.9676 86.6898 85.8287 86.8287Q85.6898 86.9676 85.5379 87.0923Q85.3861 87.2169 85.2227 87.326Q85.0594 87.4352 84.8861 87.5278Q84.7129 87.6204 84.5313 87.6956Q84.3498 87.7708 84.1618 87.8278Q83.9738 87.8848 83.7812 87.9232Q83.5885 87.9615 83.393 87.9807Q83.1975 88 83.001 88L3.999 88Q3.80254 88 3.60703 87.9807Q3.41152 87.9615 3.21883 87.9232Q3.02615 87.8848 2.83815 87.8278Q2.65015 87.7708 2.46865 87.6956Q2.28715 87.6204 2.11388 87.5278Q1.94062 87.4352 1.77727 87.326Q1.61393 87.2169 1.46206 87.0923Q1.3102 86.9676 1.17128 86.8287Q1.03236 86.6898 0.907731 86.5379Q0.783099 86.3861 0.673953 86.2227Q0.564807 86.0594 0.472197 85.8861Q0.379587 85.7128 0.304406 85.5313Q0.229224 85.3498 0.172196 85.1618Q0.115167 84.9738 0.0768396 84.7812Q0.0385126 84.5885 0.0192563 84.393Q0 84.1975 0 84.001L0 3.999Q0 3.80254 0.0192563 3.60703Q0.0385126 3.41152 0.0768396 3.21883Q0.115167 3.02615 0.172196 2.83815Q0.229224 2.65015 0.304406 2.46865Q0.379587 2.28715 0.472197 2.11388Q0.564807 1.94062 0.673953 1.77727Q0.783099 1.61393 0.907731 1.46206Q1.03236 1.3102 1.17128 1.17128Q1.3102 1.03236 1.46206 0.907731Q1.61393 0.783099 1.77727 0.673953Q1.94062 0.564807 2.11388 0.472197Q2.28715 0.379587 2.46865 0.304406Q2.65015 0.229224 2.83815 0.172196Q3.02615 0.115167 3.21883 0.0768396Q3.41152 0.0385126 3.60703 0.0192563Q3.80254 4.91118e-17 3.999 5.16491e-17L3.999 5.16491e-17Z" transform="matrix(0.9945219 0.104528464 -0.104528464 0.9945219 9.837549 0.6940479)" id="path_1" />
        <path d="M2.999 3.27437e-17L66.001 7.20612e-16Q66.1483 7.22221e-16 66.2949 0.014441Q66.4416 0.028882 66.5861 0.0576249Q66.7306 0.0863679 66.8716 0.129136Q67.0126 0.171904 67.1487 0.228285Q67.2848 0.284667 67.4147 0.354118Q67.5447 0.42357 67.6672 0.505423Q67.7896 0.587276 67.9035 0.680742Q68.0174 0.774208 68.1216 0.878387Q68.2258 0.982566 68.3193 1.09645Q68.4127 1.21034 68.4946 1.33284Q68.5764 1.45535 68.6459 1.58528Q68.7153 1.71522 68.7717 1.85133Q68.8281 1.98745 68.8709 2.12844Q68.9136 2.26942 68.9424 2.41392Q68.9711 2.55842 68.9856 2.70505Q69 2.85167 69 2.999L69 56.001Q69 56.1483 68.9856 56.2949Q68.9711 56.4416 68.9424 56.5861Q68.9136 56.7306 68.8709 56.8716Q68.8281 57.0125 68.7717 57.1487Q68.7153 57.2848 68.6459 57.4147Q68.5764 57.5446 68.4946 57.6671Q68.4127 57.7897 68.3193 57.9035Q68.2258 58.0174 68.1216 58.1216Q68.0174 58.2258 67.9035 58.3193Q67.7896 58.4127 67.6671 58.4946Q67.5446 58.5764 67.4147 58.6459Q67.2848 58.7153 67.1487 58.7717Q67.0126 58.8281 66.8716 58.8709Q66.7306 58.9136 66.5861 58.9424Q66.4416 58.9711 66.295 58.9856Q66.1483 59 66.001 59L2.999 59Q2.85167 59 2.70505 58.9856Q2.55842 58.9711 2.41392 58.9424Q2.26942 58.9136 2.12844 58.8709Q1.98745 58.8281 1.85133 58.7717Q1.71522 58.7153 1.58528 58.6459Q1.45535 58.5764 1.33284 58.4946Q1.21034 58.4127 1.09645 58.3193Q0.982566 58.2258 0.878387 58.1216Q0.774208 58.0174 0.680742 57.9035Q0.587276 57.7897 0.505423 57.6671Q0.42357 57.5446 0.354118 57.4147Q0.284667 57.2848 0.228285 57.1487Q0.171904 57.0125 0.129136 56.8716Q0.0863679 56.7306 0.0576249 56.5861Q0.028882 56.4416 0.014441 56.2949Q0 56.1483 0 56.001L0 2.999Q0 2.85167 0.014441 2.70505Q0.028882 2.55842 0.0576249 2.41392Q0.0863679 2.26942 0.129136 2.12844Q0.171904 1.98745 0.228285 1.85133Q0.284667 1.71522 0.354118 1.58528Q0.42357 1.45535 0.505423 1.33284Q0.587276 1.21034 0.680742 1.09645Q0.774208 0.982566 0.878387 0.878387Q0.982566 0.774208 1.09645 0.680742Q1.21034 0.587276 1.33284 0.505423Q1.45535 0.42357 1.58528 0.354118Q1.71522 0.284667 1.85133 0.228285Q1.98745 0.171904 2.12844 0.129136Q2.26942 0.0863679 2.41392 0.0576249Q2.55842 0.028882 2.70505 0.014441Q2.85167 3.11351e-17 2.999 3.27437e-17L2.999 3.27437e-17Z" transform="matrix(0.9945219 0.104528464 -0.104528464 0.9945219 17.84749 10.585501)" id="path_2" />
        <clipPath id="clip_1">
            <use xlink:href="#path_1" />
        </clipPath>
        <clipPath id="clip_2">
            <use xlink:href="#path_2" />
        </clipPath>
    </defs>
    <g id="EmptyState">
        <path d="M46 70L137 70C137.515 70 138.017 69.9444 138.5 69.8389C138.983 69.9444 139.485 70 140 70L192 70C195.866 70 199 66.866 199 63C199 59.134 195.866 56 192 56L186 56C182.134 56 179 52.866 179 49C179 45.134 182.134 42 186 42L205 42C208.866 42 212 38.866 212 35C212 31.134 208.866 28 205 28L183 28C186.866 28 190 24.866 190 21C190 17.134 186.866 14 183 14L119 14C122.866 14 126 10.866 126 7C126 3.13401 122.866 0 119 0L62 0C58.134 0 55 3.13401 55 7C55 10.866 58.134 14 62 14L22 14C18.134 14 15 17.134 15 21C15 24.866 18.134 28 22 28L47 28C50.866 28 54 31.134 54 35C54 38.866 50.866 42 47 42L7 42C3.13401 42 0 45.134 0 49C0 52.866 3.13401 56 7 56L46 56C42.134 56 39 59.134 39 63C39 66.866 42.134 70 46 70ZM216 63C216 66.866 212.866 70 209 70C205.134 70 202 66.866 202 63C202 59.134 205.134 56 209 56C212.866 56 216 59.134 216 63Z" transform="translate(17 64)" id="Background" fill="#F3F7FF" fill-rule="evenodd" stroke="none" />
        <g id="Photo2" transform="translate(65.98252 40.98706)">
            <path d="M78.8899 8.14813e-14L83 2.8438e-13C85.2091 2.8438e-13 87 1.79086 87 4L87 84C87 86.2091 85.2091 88 83 88L4 88C1.79086 88 5.12376e-13 86.2091 5.12376e-13 84C5.12376e-13 84 2.39949e-13 78.8848 2.90385e-13 77.1253" transform="matrix(-0.99026805 0.1391731 -0.1391731 -0.99026805 98.41803 87.156525)" id="Rectangle" fill="#FFFFFF" fill-rule="evenodd" stroke="none" />
            <path d="M17.8226 88.7253L14.1267 89.2506C12.1403 89.533 10.3062 88.1518 10.0302 86.1656L0.0349982 14.2408C-0.241011 12.2547 1.1456 10.4157 3.13208 10.1334L74.1696 0.0366149C76.1561 -0.245729 77.9902 1.13548 78.2662 3.12163L79.1251 9.30236C79.1716 9.6368 82.2401 31.8363 88.3307 75.9007C88.6366 78.1133 87.1109 80.1578 84.923 80.4671C84.8995 80.4704 84.876 80.4735 84.8524 80.4764L17.8226 88.7253Z" transform="translate(5 5)" id="Rectangle" fill="#E8F0FE" fill-rule="evenodd" stroke="none" />
            <path d="M78.8899 8.14813e-14L83 2.8438e-13C85.2091 2.8438e-13 87 1.79086 87 4L87 84C87 86.2091 85.2091 88 83 88L4 88C1.79086 88 5.12376e-13 86.2091 5.12376e-13 84C5.12376e-13 84 2.39949e-13 78.8848 2.90385e-13 77.1253" transform="matrix(-0.99026805 0.1391731 -0.1391731 -0.99026805 98.41803 87.156525)" id="Rectangle" fill="none" fill-rule="evenodd" stroke="#75A4FE" stroke-width="2.5" stroke-linecap="round" />
            <path d="M0.25 0L0.75 3.1204" transform="translate(88.26748 15.392533)" id="Line" fill="none" fill-rule="evenodd" stroke="#75A4FE" stroke-width="2.5" stroke-linecap="round" />
        </g>
        <g id="Photo1" transform="translate(89.15918 55.685547)">
            <g id="Rectangle">
                <use stroke="none" fill="#FFFFFF" xlink:href="#path_1" fill-rule="evenodd" />
                <g clip-path="url(#clip_1)">
                    <use xlink:href="#path_1" fill="none" stroke="#75A4FE" stroke-width="5" />
                </g>
            </g>
            <path d="M2.999 3.27437e-17L66.001 7.20612e-16Q66.1483 7.22221e-16 66.2949 0.014441Q66.4416 0.028882 66.5861 0.0576249Q66.7306 0.0863679 66.8716 0.129136Q67.0126 0.171904 67.1487 0.228285Q67.2848 0.284667 67.4147 0.354118Q67.5447 0.42357 67.6672 0.505423Q67.7896 0.587276 67.9035 0.680742Q68.0174 0.774208 68.1216 0.878387Q68.2258 0.982566 68.3193 1.09645Q68.4127 1.21034 68.4946 1.33284Q68.5764 1.45535 68.6459 1.58528Q68.7153 1.71522 68.7717 1.85133Q68.8281 1.98745 68.8709 2.12844Q68.9136 2.26942 68.9424 2.41392Q68.9711 2.55842 68.9856 2.70505Q69 2.85167 69 2.999L69 56.001Q69 56.1483 68.9856 56.2949Q68.9711 56.4416 68.9424 56.5861Q68.9136 56.7306 68.8709 56.8716Q68.8281 57.0125 68.7717 57.1487Q68.7153 57.2848 68.6459 57.4147Q68.5764 57.5446 68.4946 57.6671Q68.4127 57.7897 68.3193 57.9035Q68.2258 58.0174 68.1216 58.1216Q68.0174 58.2258 67.9035 58.3193Q67.7896 58.4127 67.6671 58.4946Q67.5446 58.5764 67.4147 58.6459Q67.2848 58.7153 67.1487 58.7717Q67.0126 58.8281 66.8716 58.8709Q66.7306 58.9136 66.5861 58.9424Q66.4416 58.9711 66.295 58.9856Q66.1483 59 66.001 59L2.999 59Q2.85167 59 2.70505 58.9856Q2.55842 58.9711 2.41392 58.9424Q2.26942 58.9136 2.12844 58.8709Q1.98745 58.8281 1.85133 58.7717Q1.71522 58.7153 1.58528 58.6459Q1.45535 58.5764 1.33284 58.4946Q1.21034 58.4127 1.09645 58.3193Q0.982566 58.2258 0.878387 58.1216Q0.774208 58.0174 0.680742 57.9035Q0.587276 57.7897 0.505423 57.6671Q0.42357 57.5446 0.354118 57.4147Q0.284667 57.2848 0.228285 57.1487Q0.171904 57.0125 0.129136 56.8716Q0.0863679 56.7306 0.0576249 56.5861Q0.028882 56.4416 0.014441 56.2949Q0 56.1483 0 56.001L0 2.999Q0 2.85167 0.014441 2.70505Q0.028882 2.55842 0.0576249 2.41392Q0.0863679 2.26942 0.129136 2.12844Q0.171904 1.98745 0.228285 1.85133Q0.284667 1.71522 0.354118 1.58528Q0.42357 1.45535 0.505423 1.33284Q0.587276 1.21034 0.680742 1.09645Q0.774208 0.982566 0.878387 0.878387Q0.982566 0.774208 1.09645 0.680742Q1.21034 0.587276 1.33284 0.505423Q1.45535 0.42357 1.58528 0.354118Q1.71522 0.284667 1.85133 0.228285Q1.98745 0.171904 2.12844 0.129136Q2.26942 0.0863679 2.41392 0.0576249Q2.55842 0.028882 2.70505 0.014441Q2.85167 3.11351e-17 2.999 3.27437e-17L2.999 3.27437e-17Z" transform="matrix(0.9945219 0.104528464 -0.104528464 0.9945219 17.84749 10.585501)" id="Rectangle" fill="#FFFFFF" fill-rule="evenodd" stroke="none" />
            <path d="M2.57593 17.7756L11.6296 10.1792Q11.7653 10.0654 11.9104 9.96402Q12.0555 9.86266 12.2091 9.77453Q12.3626 9.68639 12.5233 9.61216Q12.684 9.53794 12.8506 9.4782Q13.0173 9.41847 13.1886 9.37369Q13.3598 9.32892 13.5344 9.29945Q13.7089 9.26998 13.8854 9.25605Q14.0619 9.24213 14.2389 9.24385Q14.4159 9.24557 14.5921 9.26292Q14.7683 9.28028 14.9422 9.31313Q15.1162 9.34599 15.2865 9.39408Q15.4569 9.44218 15.6224 9.50514Q15.7878 9.56811 15.9471 9.64544Q16.1063 9.72278 16.2581 9.81388Q16.4099 9.90499 16.553 10.0091Q16.6961 10.1133 16.8295 10.2297L24.7725 17.1617Q24.8434 17.2236 24.9246 17.2712Q25.0059 17.3187 25.0946 17.3503Q25.1833 17.3818 25.2763 17.3962Q25.3693 17.4107 25.4634 17.4075Q25.5575 17.4042 25.6493 17.3835Q25.7411 17.3628 25.8275 17.3253Q25.9138 17.2878 25.9916 17.2348Q26.0694 17.1818 26.136 17.1152L40.094 3.14879Q40.1681 3.07462 40.246 3.00444Q40.3239 2.93425 40.4054 2.86825Q40.4869 2.80224 40.5717 2.7406Q40.6565 2.67896 40.7445 2.62184Q40.8324 2.56473 40.9232 2.5123Q41.0141 2.45988 41.1075 2.41228Q41.2009 2.36469 41.2967 2.32206Q41.3926 2.27942 41.4905 2.24187Q41.5884 2.20432 41.6881 2.17195Q41.7879 2.13958 41.8892 2.11248Q41.9905 2.08539 42.093 2.06364Q42.1956 2.04188 42.2992 2.02554Q42.4028 2.00919 42.5071 1.9983Q42.6114 1.98741 42.7161 1.98199Q42.8208 1.97658 42.9257 1.97666Q43.0305 1.97674 43.1353 1.98232Q43.24 1.9879 43.3442 1.99896Q43.4485 2.01002 43.5521 2.02652Q43.6556 2.04303 43.7582 2.06494Q43.8607 2.08686 43.962 2.11411Q44.0633 2.14137 44.1629 2.1739Q44.2626 2.20642 44.3605 2.24413Q44.4583 2.28184 44.5541 2.32462Q44.6498 2.3674 44.7432 2.41514Q44.8365 2.46288 44.9273 2.51545Q45.018 2.56802 45.1059 2.62527Q45.1937 2.68252 45.2785 2.7443Q45.3632 2.80608 45.4446 2.87221Q45.5259 2.93834 45.6037 3.00865Q45.6815 3.07896 45.7556 3.15325Q45.8296 3.22753 45.8996 3.3056Q45.9696 3.38366 46.0354 3.46529L57.5759 17.7756L59.2515 20.0046L59.4181 28.1576Q59.4191 28.2075 59.4152 28.2573Q59.4112 28.307 59.4023 28.3561Q59.3934 28.4052 59.3797 28.4532Q59.3659 28.5012 59.3475 28.5475Q59.329 28.5939 59.306 28.6382Q59.2831 28.6825 59.2558 28.7243Q59.2285 28.7661 59.1972 28.8049Q59.1659 28.8438 59.1308 28.8793Q59.0958 28.9149 59.0574 28.9467Q59.019 28.9786 58.9776 29.0065Q58.9362 29.0344 58.8923 29.058Q58.8483 29.0816 58.8022 29.1008Q58.7561 29.1199 58.7084 29.1343Q58.6606 29.1488 58.6116 29.1584Q58.5627 29.168 58.513 29.1727Q58.4633 29.1773 58.4134 29.177L1.0992 28.8371Q1.00199 28.8365 0.906723 28.8172Q0.811453 28.7979 0.721692 28.7606Q0.631931 28.7233 0.551046 28.6694Q0.470161 28.6155 0.401187 28.547Q0.332213 28.4785 0.277737 28.398Q0.223262 28.3175 0.185328 28.228Q0.147395 28.1385 0.127427 28.0434Q0.107458 27.9482 0.106205 27.851L4.2234e-13 19.6174L2.57593 17.7756Z" transform="matrix(0.9945219 0.104528464 -0.104528464 0.9945219 19.877916 36.24463)" id="Path-2" fill="#E8F0FE" fill-rule="evenodd" stroke="none" />
            <g id="Rectangle">
                <g clip-path="url(#clip_2)">
                    <use xlink:href="#path_2" fill="none" stroke="#75A4FE" stroke-width="5" />
                </g>
            </g>
            <path d="M6 12C9.31371 12 12 9.31371 12 6C12 2.68629 9.31371 0 6 0C2.68629 0 0 2.68629 0 6C0 9.31371 2.68629 12 6 12Z" transform="matrix(0.9945219 0.104528464 -0.104528464 0.9945219 27.53289 23.669577)" id="Oval" fill="#E8F0FE" fill-rule="evenodd" stroke="#75A4FE" stroke-width="2.5" />
            <path d="M0 17.5474C3.63068 14.4324 10.892 8.20256 10.892 8.20256C12.4016 6.93601 14.6086 6.95746 16.0932 8.25311L24.0348 15.1839C24.4312 15.5299 25.0278 15.5095 25.3997 15.1374L39.3562 1.17243C40.9179 -0.390142 43.4505 -0.390907 45.0131 1.17072C45.1141 1.27163 45.2096 1.37788 45.2992 1.489C45.2992 1.489 55.706 14.7043 58.1377 17.7923" transform="matrix(0.9945219 0.104528464 -0.104528464 0.9945219 20.404156 38.287987)" id="Path-2" fill="none" fill-rule="evenodd" stroke="#75A4FE" stroke-width="2.5" stroke-linecap="round" />
        </g>
    </g>
</svg>
