<?xml version="1.0" encoding="utf-8"?>
<svg width="250px" height="200px" viewbox="0 0 250 200" version="1.1" xmlns:xlink="http://www.w3.org/1999/xlink" xmlns="http://www.w3.org/2000/svg">
    <defs>
        <path d="M2.1457 2.14712L2.14712 2.1457Q2.25293 2.03989 2.3638 1.9394Q2.47468 1.83891 2.59035 1.74398Q2.70602 1.64905 2.82621 1.55991Q2.9464 1.47077 3.07082 1.38764Q3.19524 1.3045 3.32359 1.22757Q3.45194 1.15064 3.58391 1.0801Q3.71588 1.00956 3.85115 0.945584Q3.98642 0.881606 4.12467 0.824341Q4.26292 0.767077 4.40381 0.716666Q4.5447 0.666254 4.6879 0.622816Q4.83109 0.579378 4.97624 0.543019Q5.1214 0.50666 5.26816 0.477467Q5.41493 0.448274 5.56294 0.426317Q5.71096 0.404361 5.85988 0.389694Q6.0088 0.375027 6.15826 0.367684Q6.30772 0.360342 6.45735 0.360342Q6.60699 0.360342 6.75645 0.367684Q6.90591 0.375027 7.05483 0.389694Q7.20374 0.404361 7.35176 0.426317Q7.49978 0.448274 7.64655 0.477467Q7.79331 0.50666 7.93846 0.543019Q8.08362 0.579378 8.22681 0.622816Q8.37001 0.666254 8.5109 0.716666Q8.65179 0.767077 8.79004 0.824341Q8.92829 0.881606 9.06356 0.945584Q9.19883 1.00956 9.3308 1.0801Q9.46277 1.15064 9.59112 1.22757Q9.71947 1.3045 9.84389 1.38764Q9.96831 1.47077 10.0885 1.55991Q10.2087 1.64905 10.3244 1.74398Q10.44 1.83891 10.5509 1.9394Q10.6618 2.03989 10.7676 2.1457L21.8543 13.2324Q21.9601 13.3382 22.0606 13.4491Q22.1611 13.56 22.256 13.6756Q22.351 13.7913 22.4401 13.9115Q22.5292 14.0317 22.6124 14.1561Q22.6955 14.2805 22.7724 14.4089Q22.8494 14.5372 22.9199 14.6692Q22.9904 14.8012 23.0544 14.9364Q23.1184 15.0717 23.1757 15.21Q23.2329 15.3482 23.2833 15.4891Q23.3337 15.63 23.3772 15.7732Q23.4206 15.9164 23.457 16.0615Q23.4933 16.2067 23.5225 16.3535Q23.5517 16.5002 23.5737 16.6482Q23.5956 16.7963 23.6103 16.9452Q23.625 17.0941 23.6323 17.2435Q23.6397 17.393 23.6397 17.5426Q23.6397 17.6923 23.6323 17.8417Q23.625 17.9912 23.6103 18.1401Q23.5956 18.289 23.5737 18.4371Q23.5517 18.5851 23.5225 18.7318Q23.4933 18.8786 23.457 19.0238Q23.4206 19.1689 23.3772 19.3121Q23.3337 19.4553 23.2833 19.5962Q23.2329 19.7371 23.1757 19.8753Q23.1184 20.0136 23.0544 20.1488Q22.9904 20.2841 22.9199 20.4161Q22.8494 20.5481 22.7724 20.6764Q22.6955 20.8048 22.6124 20.9292Q22.5292 21.0536 22.4401 21.1738Q22.351 21.294 22.256 21.4097Q22.1611 21.5253 22.0606 21.6362Q21.9601 21.7471 21.8543 21.8529L21.8529 21.8543Q21.7471 21.9601 21.6362 22.0606Q21.5253 22.1611 21.4097 22.256Q21.294 22.351 21.1738 22.4401Q21.0536 22.5292 20.9292 22.6124Q20.8048 22.6955 20.6764 22.7724Q20.5481 22.8494 20.4161 22.9199Q20.2841 22.9904 20.1488 23.0544Q20.0136 23.1184 19.8753 23.1757Q19.7371 23.2329 19.5962 23.2833Q19.4553 23.3337 19.3121 23.3772Q19.1689 23.4206 19.0238 23.457Q18.8786 23.4933 18.7318 23.5225Q18.5851 23.5517 18.4371 23.5737Q18.289 23.5956 18.1401 23.6103Q17.9912 23.625 17.8417 23.6323Q17.6923 23.6397 17.5426 23.6397Q17.393 23.6397 17.2435 23.6323Q17.0941 23.625 16.9452 23.6103Q16.7963 23.5956 16.6482 23.5737Q16.5002 23.5517 16.3535 23.5225Q16.2067 23.4933 16.0615 23.457Q15.9164 23.4206 15.7732 23.3772Q15.63 23.3337 15.4891 23.2833Q15.3482 23.2329 15.21 23.1757Q15.0717 23.1184 14.9364 23.0544Q14.8012 22.9904 14.6692 22.9199Q14.5372 22.8494 14.4089 22.7724Q14.2805 22.6955 14.1561 22.6124Q14.0317 22.5292 13.9115 22.4401Q13.7913 22.351 13.6756 22.256Q13.56 22.1611 13.4491 22.0606Q13.3382 21.9601 13.2324 21.8543L2.1457 10.7676Q2.03989 10.6618 1.9394 10.5509Q1.83891 10.44 1.74398 10.3244Q1.64905 10.2087 1.55991 10.0885Q1.47077 9.96831 1.38764 9.84389Q1.3045 9.71947 1.22757 9.59112Q1.15064 9.46277 1.0801 9.3308Q1.00956 9.19883 0.945585 9.06356Q0.881606 8.92829 0.824342 8.79004Q0.767078 8.65179 0.716666 8.5109Q0.666254 8.37001 0.622816 8.22681Q0.579379 8.08362 0.543019 7.93846Q0.50666 7.79331 0.477467 7.64655Q0.448274 7.49978 0.426318 7.35176Q0.404361 7.20374 0.389694 7.05483Q0.375027 6.90591 0.367684 6.75645Q0.360342 6.60699 0.360342 6.45735Q0.360342 6.30772 0.367684 6.15826Q0.375027 6.0088 0.389694 5.85988Q0.404361 5.71096 0.426318 5.56294Q0.448274 5.41493 0.477467 5.26816Q0.50666 5.1214 0.543019 4.97624Q0.579379 4.83109 0.622816 4.6879Q0.666254 4.5447 0.716666 4.40381Q0.767078 4.26292 0.824342 4.12467Q0.881606 3.98642 0.945585 3.85115Q1.00956 3.71588 1.0801 3.58391Q1.15064 3.45194 1.22757 3.32359Q1.3045 3.19524 1.38764 3.07082Q1.47077 2.9464 1.55991 2.82621Q1.64905 2.70602 1.74398 2.59035Q1.83891 2.47468 1.9394 2.3638Q2.03989 2.25293 2.1457 2.14712L2.1457 2.14712Z" transform="translate(63 62)" id="path_1" />
        <clipPath id="clip_1">
            <use xlink:href="#path_1" />
        </clipPath>
    </defs>
    <g id="EmptyState">
        <path d="M46 70L129 70C132.866 70 136 66.866 136 63C136 59.134 132.866 56 129 56C129 56 123 52.866 123 49C123 45.134 126.952 42 131.826 42L142 42C145.866 42 149 38.866 149 35C149 31.134 145.866 28 142 28L120 28C123.866 28 127 24.866 127 21C127 17.134 123.866 14 120 14L160 14C163.866 14 167 10.866 167 7C167 3.13401 163.866 0 160 0L62 0C58.134 0 55 3.13401 55 7C55 10.866 58.134 14 62 14L22 14C18.134 14 15 17.134 15 21C15 24.866 18.134 28 22 28L47 28C50.866 28 54 31.134 54 35C54 38.866 50.866 42 47 42L7 42C3.13401 42 0 45.134 0 49C0 52.866 3.13401 56 7 56L46 56C42.134 56 39 59.134 39 63C39 66.866 42.134 70 46 70ZM153 35C153 38.866 156.134 42 160 42C163.866 42 167 38.866 167 35C167 31.134 163.866 28 160 28C156.134 28 153 31.134 153 35Z" transform="translate(47 65)" id="Background" fill="#F3F7FF" fill-rule="evenodd" stroke="none" />
        <g id="Search" transform="translate(87 66)">
            <path d="M33.5 67C52.0015 67 67 52.0015 67 33.5C67 14.9985 52.0015 0 33.5 0C14.9985 0 0 14.9985 0 33.5C0 52.0015 14.9985 67 33.5 67Z" id="Oval" fill="#F3F7FF" fill-rule="evenodd" stroke="#75A4FE" stroke-width="2.5" />
            <path d="M21.1321 52.4939C23.7702 52.9808 26.5 53 26.5 53C41.1355 53 53 41.1355 53 26.5C53 11.8645 41.1355 0 26.5 0C22.7404 0 19.1636 0.782928 15.9238 2.19464C10.2938 4.64787 5.68158 8.99993 2.89599 14.4419C1.04451 18.0589 0 22.1575 0 26.5C0 30.44 0.859851 34.1792 2.40214 37.5401C3.50322 39.9396 4.95214 42.1463 6.68434 44.0956" transform="translate(7 7)" id="Oval" fill="#FFFFFF" fill-rule="evenodd" stroke="#75A4FE" stroke-width="2.5" stroke-linecap="round" />
            <path d="M1.59949e-15 1.85269e-15C2.14812 1.74598 4.57496 3.1623 7.20344 4.1719" transform="translate(16.797426 54.074726)" id="Oval" fill="none" fill-rule="evenodd" stroke="#75A4FE" stroke-width="2.5" stroke-linecap="round" />
            <path d="M19 0C17.2773 0 15.6082 0.229263 14.0214 0.658943C5.94283 2.84657 0 10.2293 0 19" transform="translate(15 15)" id="Oval" fill="none" fill-rule="evenodd" stroke="#A4C3FE" stroke-width="2.5" stroke-linecap="round" />
            <path d="M0 0L6 6" transform="translate(61 60)" id="Path-4" fill="none" fill-rule="evenodd" stroke="#75A4FE" stroke-width="2.5" />
            <g id="Rectangle">
                <use stroke="none" fill="#E8F0FE" xlink:href="#path_1" fill-rule="evenodd" />
                <g clip-path="url(#clip_1)">
                    <use xlink:href="#path_1" fill="none" stroke="#75A4FE" stroke-width="5" />
                </g>
            </g>
            <path d="M0 0L11 11" transform="translate(71 67)" id="Line" fill="none" fill-rule="evenodd" stroke="#FFFFFF" stroke-width="2.5" stroke-linecap="round" />
        </g>
        <path d="M17.5 1L0.324219 1M24.5 1L22.2788 1M11.1758 8.77734L3 8.77734" transform="translate(163 91)" id="Line-8" fill="none" fill-rule="evenodd" stroke="#A4C3FE" stroke-width="2.5" stroke-linecap="round" stroke-linejoin="round" />
        <path d="M27.5 1L10.3242 1M4.5 1L0.278809 1M32.1758 9.77734L24 9.77734" transform="translate(52 112)" id="Line-8" fill="none" fill-rule="evenodd" stroke="#A4C3FE" stroke-width="2.5" stroke-linecap="round" stroke-linejoin="round" />
    </g>
</svg>
