<?xml version="1.0" encoding="utf-8"?>
<svg width="250px" height="200px" viewbox="0 0 250 200" version="1.1" xmlns:xlink="http://www.w3.org/1999/xlink" xmlns="http://www.w3.org/2000/svg">
    <g id="EmptyState">
        <path d="M39 63C39 66.866 42.134 70 46 70L192 70C195.866 70 199 66.866 199 63C199 59.134 195.866 56 192 56L186 56C182.134 56 179 52.866 179 49C179 45.134 182.134 42 186 42L205 42C208.866 42 212 38.866 212 35C212 31.134 208.866 28 205 28L183 28C186.866 28 190 24.866 190 21C190 17.134 186.866 14 183 14L119 14C122.866 14 126 10.866 126 7C126 3.13401 122.866 0 119 0L62 0C58.134 0 55 3.13401 55 7C55 10.866 58.134 14 62 14L22 14C18.134 14 15 17.134 15 21C15 24.866 18.134 28 22 28L47 28C50.866 28 54 31.134 54 35C54 38.866 50.866 42 47 42L7 42C3.13401 42 0 45.134 0 49C0 52.866 3.13401 56 7 56L46 56C42.134 56 39 59.134 39 63ZM216 63C216 66.866 212.866 70 209 70C205.134 70 202 66.866 202 63C202 59.134 205.134 56 209 56C212.866 56 216 59.134 216 63Z" transform="translate(17 64)" id="Background" fill="#F3F7FF" fill-rule="evenodd" stroke="none" />
        <path d="M22 83C9.84974 83 0 73.3741 0 61.5C0 49.6259 9.84974 40 22 40C22.5167 40 23.0292 40.0174 23.537 40.0517C23.1842 38.0878 23 36.0654 23 34C23 15.2223 38.2223 0 57 0C71.991 0 84.7161 9.70198 89.2386 23.1695C90.3102 23.0575 91.3982 23 92.5 23C109.345 23 123 36.4315 123 53C123 68.7406 110.675 81.7273 95 82.9782L95 83L38.5078 83M33.996 83L27.0314 83" transform="translate(70 57)" id="Shape" fill="#FFFFFF" fill-rule="evenodd" stroke="#75A4FE" stroke-width="2.5" stroke-linecap="round" />
        <path d="M5.5 11C8.53757 11 11 8.53757 11 5.5C11 2.46243 8.53757 0 5.5 0C2.46243 0 0 2.46243 0 5.5C0 8.53757 2.46243 11 5.5 11Z" transform="translate(122 115)" id="Oval" fill="none" fill-rule="evenodd" stroke="#75A4FE" stroke-width="2.5" />
        <path d="M0 10.7224L7 5.22925L0 0" transform="translate(112 98.27758)" id="Line" fill="none" fill-rule="evenodd" stroke="#75A4FE" stroke-width="2.5" stroke-linecap="round" stroke-linejoin="round" />
        <path d="M0 10.7224L7 5.22925L0 0" transform="matrix(-1 0 0 1 143 98.27758)" id="Line" fill="none" fill-rule="evenodd" stroke="#75A4FE" stroke-width="2.5" stroke-linecap="round" stroke-linejoin="round" />
        <path d="M13.4403 0C6.93139 1.72258 1.79208 6.81286 0 13.2932" transform="matrix(-1 0 0 1 150.44028 67)" id="Oval" fill="none" fill-rule="evenodd" stroke="#A4C3FE" stroke-width="2.5" stroke-linecap="round" />
        <path d="M3 6C4.65685 6 6 4.65685 6 3C6 1.34315 4.65685 0 3 0C1.34315 0 0 1.34315 0 3C0 4.65685 1.34315 6 3 6Z" transform="translate(155 44)" id="Oval" fill="none" fill-rule="evenodd" stroke="#A4C3FE" stroke-width="2" />
        <path d="M3 6C4.65685 6 6 4.65685 6 3C6 1.34315 4.65685 0 3 0C1.34315 0 0 1.34315 0 3C0 4.65685 1.34315 6 3 6Z" transform="translate(186 60)" id="Oval" fill="#A4C3FE" fill-rule="evenodd" stroke="none" />
        <path d="M8.83884 0.353554L0.480613 8.71178M0.353554 0.353553L8.71178 8.71178" transform="translate(165.40381 57.403805)" id="Line-5" fill="none" fill-rule="evenodd" stroke="#A4C3FE" stroke-width="2.5" stroke-linecap="round" stroke-linejoin="round" />
        <path d="M6 0L0 6M0 0L6 6" transform="translate(71.40381 75.59619)" id="Line-4" fill="none" fill-rule="evenodd" stroke="#A4C3FE" stroke-width="2.5" stroke-linecap="round" stroke-linejoin="round" />
        <path d="M3 6C4.65685 6 6 4.65685 6 3C6 1.34315 4.65685 0 3 0C1.34315 0 0 1.34315 0 3C0 4.65685 1.34315 6 3 6Z" transform="translate(82 63)" id="Oval" fill="#A4C3FE" fill-rule="evenodd" stroke="none" />
    </g>
</svg>
