<svg data-name="Layer 1" xmlns="http://www.w3.org/2000/svg" width="638.975" height="778.645"><path d="M300.166 600v-2c3.977-.002 8.013-.084 11.999-.243l.08 1.998a304.04 304.04 0 01-12.078.244zm-12.075-.232a306.46 306.46 0 01-12.056-.71l.157-1.995c3.976.314 8.006.552 11.977.707zm36.21-.737l-.158-1.994a298.01 298.01 0 0011.937-1.199l.24 1.987c-3.979.48-8.022.885-12.018 1.206zm-60.286-1.166a304.046 304.046 0 01-11.963-1.675l.318-1.975c3.923.63 7.921 1.19 11.882 1.663zm84.265-1.729l-.32-1.974c3.923-.634 7.894-1.36 11.804-2.155l.398 1.96a298.718 298.718 0 01-11.882 2.17zm-108.113-2.102a301.51 301.51 0 01-11.788-2.636l.475-1.943a296.1 296.1 0 0011.71 2.618zm131.781-2.717l-.478-1.942a296.023 296.023 0 0011.59-3.103l.557 1.922a298.714 298.714 0 01-11.669 3.123zm-155.241-3.03a302.455 302.455 0 01-11.537-3.582l.632-1.899a298.659 298.659 0 0011.46 3.559zm178.44-3.69l-.633-1.896a296.628 296.628 0 0011.3-4.034l.712 1.87a297.195 297.195 0 01-11.378 4.06zm-201.39-3.952a300.473 300.473 0 01-11.233-4.519l.784-1.84a296.493 296.493 0 0011.159 4.488zm223.94-4.612l-.784-1.84a298.28 298.28 0 0010.91-4.921l.86 1.807a302.26 302.26 0 01-10.985 4.954zm-246.211-4.875a298.123 298.123 0 01-10.825-5.411l.93-1.77a297.619 297.619 0 0010.752 5.374zm267.976-5.475l-.931-1.77a300.572 300.572 0 0010.486-5.789l1.002 1.731a302.93 302.93 0 01-10.557 5.828zm-289.395-5.78a299.257 299.257 0 01-10.346-6.263l1.07-1.69a298.715 298.715 0 0010.277 6.223zm310.27-6.298l-1.07-1.69a299.51 299.51 0 009.992-6.616l1.137 1.645a299.474 299.474 0 01-10.06 6.661zm-330.7-6.638a300.472 300.472 0 01-9.805-7.071l1.202-1.598a301.018 301.018 0 009.74 7.025zm350.547-7.084l-1.203-1.597a299.435 299.435 0 009.436-7.4l1.266 1.549a301.964 301.964 0 01-9.499 7.448zm-369.864-7.446a302.76 302.76 0 01-9.202-7.832l1.326-1.496a301.322 301.322 0 009.142 7.78zm388.558-7.827l-1.326-1.496c2.98-2.64 5.947-5.378 8.818-8.135l1.384 1.443a303.323 303.323 0 01-8.876 8.188zm-406.64-8.196a306.94 306.94 0 01-8.544-8.54l1.442-1.386a302.2 302.2 0 008.487 8.482zm424.06-8.532l-1.441-1.386a300.234 300.234 0 008.142-8.817l1.497 1.328a304.128 304.128 0 01-8.198 8.875zm-440.797-8.879a301.797 301.797 0 01-7.83-9.192l1.548-1.266a297.24 297.24 0 007.778 9.13zm456.832-9.194l-1.55-1.265a300.97 300.97 0 007.415-9.445l1.597 1.203a303.903 303.903 0 01-7.462 9.507zm-472.117-9.492c-2.41-3.2-4.787-6.491-7.066-9.783l1.645-1.139c2.263 3.27 4.624 6.54 7.019 9.719zm486.657-9.817l-1.645-1.136a302.462 302.462 0 006.634-10.014l1.69 1.07a303.978 303.978 0 01-6.68 10.08zm-500.39-10.023a302.737 302.737 0 01-6.254-10.313l1.73-1.002a301.284 301.284 0 006.213 10.244zm513.339-10.4l-1.73-1.001c2.001-3.46 3.955-7 5.808-10.52l1.77.93a301.567 301.567 0 01-5.848 10.592zm-525.426-10.47a300.611 300.611 0 01-5.402-10.776l1.806-.86a299.84 299.84 0 005.365 10.705zm536.69-10.941l-1.806-.86a298.307 298.307 0 004.941-10.96l1.84.784a300.71 300.71 0 01-4.975 11.036zM24.034 417.85a298.363 298.363 0 01-4.512-11.17l1.87-.71a297.393 297.393 0 004.48 11.093zm556.552-11.452l-1.87-.71a300.495 300.495 0 004.038-11.332l1.897.633a300.49 300.49 0 01-4.065 11.409zm-565.13-11.093a297.367 297.367 0 01-3.602-11.53l1.92-.557a296.44 296.44 0 003.579 11.452zm572.785-11.852l-1.922-.555a296.956 296.956 0 003.098-11.592l1.94.477a298.282 298.282 0 01-3.116 11.67zM8.723 372.108a300.359 300.359 0 01-2.656-11.783l1.96-.4a298.124 298.124 0 002.638 11.704zM594 359.998l-1.96-.399a297.96 297.96 0 002.148-11.804l1.975.319A300.498 300.498 0 01594 359.998zM3.891 348.443a300.896 300.896 0 01-1.695-11.96l1.986-.24c.48 3.962 1.047 7.958 1.684 11.88zm593.953-12.293l-1.986-.238c.475-3.96.877-7.976 1.191-11.938l1.994.158c-.317 3.99-.72 8.033-1.199 12.018zM.984 324.467a302.943 302.943 0 01-.732-12.057l1.998-.081c.162 3.98.407 8.009.727 11.977zm598.778-12.39l-1.998-.08c.156-3.985.236-8.021.236-11.997v-.662h2v.658c0 4.005-.08 8.068-.238 12.08zM2 300.331H0v-.336c0-3.901.076-7.852.226-11.739l1.998.077A305.04 305.04 0 002 300zm595.736-12.988a298.887 298.887 0 00-.74-11.976l1.995-.163c.327 4.002.577 8.058.743 12.056zM2.925 276.356L.93 276.2a302.67 302.67 0 011.186-12.02l1.987.236a300.63 300.63 0 00-1.18 11.94zm592.855-12.925a296.988 296.988 0 00-1.697-11.877l1.974-.323a298.89 298.89 0 011.707 11.958zM5.76 252.533l-1.975-.316a298.34 298.34 0 012.15-11.886l1.96.395c-.787 3.9-1.505 7.873-2.135 11.807zm586.147-12.779a298.347 298.347 0 00-2.65-11.701l1.94-.482c.964 3.883 1.861 7.847 2.669 11.781zm-581.4-10.738l-1.944-.475c.952-3.893 1.997-7.82 3.106-11.675l1.922.553a297.037 297.037 0 00-3.085 11.597zm575.627-12.548a296.327 296.327 0 00-3.59-11.449l1.897-.637a298.358 298.358 0 013.613 11.526zM17.143 205.959l-1.898-.63a300.322 300.322 0 014.052-11.415l1.87.707a297.51 297.51 0 00-4.024 11.338zm561.349-12.234a298.232 298.232 0 00-4.493-11.09l1.837-.788a300.182 300.182 0 014.525 11.164zM25.65 183.46l-1.84-.783a300.17 300.17 0 014.962-11.04l1.807.857a297.36 297.36 0 00-4.93 10.966zm543.41-11.727a298.501 298.501 0 00-5.377-10.699l1.768-.934c1.869 3.538 3.69 7.162 5.413 10.772zm-533.112-9.995l-1.771-.928a301.257 301.257 0 015.836-10.598l1.733 1a298.825 298.825 0 00-5.798 10.526zm521.928-11.18c-2-3.443-4.093-6.888-6.224-10.239l1.687-1.073a302.515 302.515 0 016.267 10.307zM47.962 140.93l-1.69-1.07a302.166 302.166 0 016.667-10.087l1.646 1.137a299.672 299.672 0 00-6.623 10.02zm497.056-10.595a301.98 301.98 0 00-7.03-9.71l1.596-1.205a301.87 301.87 0 017.077 9.776zm-483.414-9.17l-1.598-1.2c2.41-3.209 4.917-6.41 7.452-9.516l1.55 1.264a301.117 301.117 0 00-7.404 9.453zm468.97-9.964a300.223 300.223 0 00-7.788-9.12l1.494-1.33c2.663 2.995 5.3 6.084 7.84 9.183zm-453.791-8.634l-1.497-1.325c2.655-3 5.41-5.99 8.187-8.885l1.443 1.385a302.258 302.258 0 00-8.133 8.825zm437.854-9.292a302.91 302.91 0 00-8.497-8.473l1.384-1.445c2.89 2.77 5.768 5.64 8.553 8.53zM93.394 85.25l-1.387-1.441a304.305 304.305 0 018.868-8.198l1.328 1.495a302.16 302.16 0 00-8.81 8.144zm403.917-8.577a301.044 301.044 0 00-9.15-7.77l1.263-1.55a302.453 302.453 0 019.211 7.822zm-385.982-7.35l-1.268-1.547a301.276 301.276 0 019.49-7.46l1.205 1.598a299.478 299.478 0 00-9.427 7.409zm367.374-7.817a301.257 301.257 0 00-9.747-7.014l1.134-1.647c3.3 2.275 6.6 4.65 9.814 7.061zm-348.231-6.618l-1.14-1.644c3.297-2.285 6.68-4.53 10.053-6.672l1.072 1.689a298.147 298.147 0 00-9.985 6.627zm328.46-7.015a298.882 298.882 0 00-10.286-6.21l1-1.732a303.155 303.155 0 0110.353 6.251zm-308.233-5.83l-1.004-1.731a302.375 302.375 0 0110.55-5.839l.934 1.769a299.257 299.257 0 00-10.48 5.8zm287.419-6.172a298.9 298.9 0 00-10.758-5.362l.855-1.808a298.879 298.879 0 0110.83 5.399zm-266.238-5l-.86-1.806c3.606-1.719 7.3-3.39 10.979-4.966l.787 1.838a298.26 298.26 0 00-10.906 4.934zm244.51-5.286a297.71 297.71 0 00-11.164-4.475l.707-1.871a299.293 299.293 0 0111.238 4.506zM193.878 21.45l-.712-1.869a298.8 298.8 0 0111.372-4.073l.636 1.897a297.057 297.057 0 00-11.296 4.045zm200.007-4.36a297.1 297.1 0 00-11.463-3.545l.553-1.922a299.312 299.312 0 0111.54 3.569zm-177.26-3.27l-.558-1.92a298.743 298.743 0 0111.665-3.138l.48 1.941a298.193 298.193 0 00-11.587 3.117zm154.2-3.352a296.005 296.005 0 00-11.712-2.605l.394-1.961c3.937.792 7.904 1.675 11.792 2.622zM239.915 8.06l-.401-1.959c3.92-.803 7.918-1.537 11.88-2.183l.322 1.974a300.339 300.339 0 00-11.801 2.168zm107.39-2.326a299.092 299.092 0 00-11.885-1.65l.236-1.987c3.98.471 8.005 1.03 11.964 1.662zM263.595 4.2l-.243-1.985c3.979-.485 8.022-.895 12.017-1.22l.162 1.994c-3.969.322-7.985.73-11.937 1.211zm59.885-1.29a301.83 301.83 0 00-11.979-.693l.077-1.999c4.01.153 8.066.387 12.057.698zm-35.972-.654l-.082-1.998c3.999-.165 8.062-.252 12.076-.259l.003 2c-3.987.007-8.024.093-11.997.257z" fill="#3f3d56"/><path d="M638.975 205.041v-54.44a125.247 125.247 0 01-80.859-60.189v.001a23.79 23.79 0 01-14.22 4.68h-43.23a178.55 178.55 0 00138.31 109.948z" fill="#3f3d56"/><path d="M638.975 147.481V95.183a29.121 29.121 0 00-29.13-29.13h-41.97v5.05a23.917 23.917 0 01-7.399 17.33 122.298 122.298 0 0078.5 59.048zM437.086 95.093h-27.03a23.987 23.987 0 01-23.98-23.99v-5.05h-39.38a29.128 29.128 0 00-29.13 29.13v648.2a29.08 29.08 0 0029.13 29.11h263.15a28.362 28.362 0 003.59-.22 29.146 29.146 0 0025.54-28.89V266.211c-95.71-11.09-175.459-79.379-201.89-171.118z" fill="#3f3d56"/><path d="M497.387 95.093h-57.14c26.3 90.039 104.68 157.028 198.728 168.068v-55.02A181.668 181.668 0 01497.387 95.093z" fill="#3f3d56"/><path d="M412.854 762.472c.725-.72 17.928-18.142 32.51-59.48 13.379-37.925 26.879-104.06 15.213-203.761-22.1-188.876 91.228-309.247 92.377-310.441l-3.354-3.222c-.292.303-29.43 30.933-55.354 84.706a416.28 416.28 0 00-38.288 229.498c22.063 188.553-45.698 258.718-46.385 259.406z" opacity=".1"/><circle cx="587.753" cy="155.402" r="30.222" opacity=".1"/><circle cx="468.688" cy="241.199" r="30.222" opacity=".1"/><circle cx="514.279" cy="328.909" r="30.222" opacity=".1"/><circle cx="422.603" cy="371.139" r="30.222" opacity=".1"/><circle cx="498.814" cy="490.256" r="30.222" opacity=".1"/><path d="M394.854 759.222s47.005-65.101-27.84-140.81zM431.282 766.728s32.126-73.591 135.384-47.681z" opacity=".1"/><path fill="#6c63ff" d="M351.73 505.935h254v50h-254z"/><path d="M429.308 399.963a76.314 76.314 0 1135.408 28.43 24.686 24.686 0 11-35.408-28.43z" fill="#f2f2f2"/><path d="M508.804 330.071c-1.817-1.048-8.702 7.364-16.3 19.607-7.6-12.243-14.484-20.655-16.3-19.607-2.019 1.166 2.948 13.585 11.2 28.233-8.252 14.647-13.219 27.067-11.2 28.232 1.816 1.05 8.7-7.363 16.3-19.606 7.598 12.243 14.483 20.655 16.3 19.606 2.018-1.165-2.948-13.585-11.2-28.232 8.252-14.648 13.218-27.067 11.2-28.233z" fill="#6c63ff"/><path d="M143.154 459.653s-8.135 34.863-1.162 34.863 20.917-16.27 20.917-16.27v-9.296z" fill="#a0616a"/><path fill="#d0cde1" d="M160.004 428.858l-20.918 32.538h15.107l5.811-32.538z"/><path fill="#a0616a" d="M147.221 712.406h27.89v23.242h-27.89zM236.701 708.92l5.811 26.728 29.052-6.973-6.973-23.241-27.89 3.486z"/><path d="M149.545 468.369s-9.297 4.648-10.459 25.566 3.487 75.535 3.487 75.535-4.649 24.404 0 46.483-4.649 102.264 1.162 102.264 36.024 3.486 37.186 0 2.325-55.78 2.325-55.78 9.296-26.728 0-42.997c0 0 20.917 17.43 20.917 22.08s22.08 76.697 32.538 77.859 39.511-1.162 33.7-11.621-19.755-58.104-19.755-58.104-10.458-34.863-29.052-49.97l9.297-74.373s19.755-49.97 8.135-56.942-89.48 0-89.48 0z" fill="#2f2e41"/><circle cx="184.408" cy="248.735" r="30.214" fill="#a0616a"/><path d="M169.3 267.328s11.621 38.349 8.135 42.997 37.187-25.566 37.187-25.566-15.107-10.458-9.297-25.565z" fill="#a0616a"/><path d="M218.108 281.273s-13.945 4.649-20.917 12.783-23.242 9.297-23.242 9.297-14.382 8.1-19.756 22.08c-5.726 14.899-2.398 35.876 0 40.672 4.649 9.297 4.649 32.539 4.649 32.539l-5.81 53.455s-20.918 19.756-4.649 22.08 45.321-1.162 62.753 0 37.186 3.486 31.376-8.135-12.783-19.755-5.81-42.997c5.456-18.187 5.219-86.187 4.858-114.902a23.118 23.118 0 00-11.227-19.537z" fill="#d0cde1"/><path d="M172.787 459.072s-5.287 11.64-5.81 18.593c-4.068 54.037 25.565 0 25.565 0v-9.296z" fill="#a0616a"/><path d="M254.133 726.351s-17.432-12.783-17.432-5.81-19.755 34.862-19.755 34.862-32.538 23.242-5.81 23.242 38.348-4.648 38.348-4.648l27.89-18.594s6.973-8.134 4.649-17.431-10.46-22.08-10.46-22.08-9.296 12.783-17.43 10.46zM151.87 729.837s-2.325-11.62-10.46-5.81-30.214 23.242-30.214 23.242-40.673 9.296-15.107 20.917 83.67-4.648 83.67-4.648 2.324-37.187 0-36.025-26.728 4.649-27.89 2.324z" fill="#2f2e41"/><path opacity=".1" d="M201.258 317.879l3.486 70.887-33.781 68.419-5.73-2.18 34.863-63.915 1.162-73.211z"/><path d="M228.567 296.38l8.715-1.743s26.147 19.175 18.013 57.523-44.16 96.453-44.16 96.453-8.134 10.459-10.458 12.783-6.973 0-4.649 3.486-3.486 5.81-3.486 5.81-25.566 0-23.241-9.296 41.835-75.535 41.835-75.535l-5.81-61.59s-4.65-30.215 23.24-27.89z" fill="#d0cde1"/><path opacity=".1" d="M239.607 403.873v-8.135l-39.511 65.077 39.511-56.942z"/><path d="M162.968 220.746l-4.995-2s10.444-11.498 24.975-10.498l-4.087-4.5s9.99-3.999 19.072 6.5c4.774 5.518 10.298 12.005 13.74 19.313h5.35l-2.232 4.915 7.814 4.916-8.02-.883a27.202 27.202 0 01-.76 12.732l.216 3.885s-9.297-14.383-9.297-16.383v5s-4.995-4.5-4.995-7.5l-2.724 3.5-1.363-5.5-16.8 5.5 2.724-4.5-10.444 1.5 4.087-5.499s-11.807 6.5-12.26 11.998-6.358 12.498-6.358 12.498l-2.724-4.999s-4.087-22.497 9.081-29.995z" fill="#2f2e41"/></svg>
