<?xml version="1.0" encoding="UTF-8" standalone="no"?>
<!DOCTYPE svg PUBLIC "-//W3C//DTD SVG 1.1//EN" "http://www.w3.org/Graphics/SVG/1.1/DTD/svg11.dtd">
<svg width="100%" height="100%" viewBox="0 0 500 500" version="1.1" xmlns="http://www.w3.org/2000/svg" xmlns:xlink="http://www.w3.org/1999/xlink" xml:space="preserve" xmlns:serif="http://www.serif.com/" style="fill-rule:evenodd;clip-rule:evenodd;stroke-miterlimit:10;">
    <g id="freepik--background-complete--inject-5" transform="matrix(1.19487,0,0,1.19487,-48.446,-47.0186)">
        <rect x="416.78" y="398.49" width="33.12" height="0.25" style="fill:rgb(235,235,235);"/>
        <rect x="322.53" y="401.21" width="8.69" height="0.25" style="fill:rgb(235,235,235);"/>
        <rect x="396.59" y="389.21" width="19.19" height="0.25" style="fill:rgb(235,235,235);"/>
        <rect x="52.46" y="390.89" width="43.19" height="0.25" style="fill:rgb(235,235,235);"/>
        <rect x="104.56" y="390.89" width="6.33" height="0.25" style="fill:rgb(235,235,235);"/>
        <rect x="131.47" y="395.11" width="93.68" height="0.25" style="fill:rgb(235,235,235);"/>
        <path d="M237,337.8L43.91,337.8C40.781,337.795 38.21,335.219 38.21,332.09L38.21,60.66C38.237,57.55 40.8,55.005 43.91,55L237,55C240.132,55 242.71,57.578 242.71,60.71L242.71,332.09C242.71,335.222 240.132,337.8 237,337.8ZM43.91,55.2C40.919,55.205 38.46,57.669 38.46,60.66L38.46,332.09C38.46,335.081 40.919,337.545 43.91,337.55L237,337.55C239.993,337.545 242.455,335.083 242.46,332.09L242.46,60.66C242.455,57.667 239.993,55.205 237,55.2L43.91,55.2Z" style="fill:rgb(235,235,235);fill-rule:nonzero;"/>
        <path d="M453.31,337.8L260.21,337.8C257.08,337.795 254.505,335.22 254.5,332.09L254.5,60.66C254.533,57.549 257.098,55.005 260.21,55L453.31,55C456.416,55.011 458.973,57.554 459,60.66L459,332.09C459,335.215 456.435,337.789 453.31,337.8ZM260.21,55.2C257.217,55.205 254.755,57.667 254.75,60.66L254.75,332.09C254.755,335.083 257.217,337.545 260.21,337.55L453.31,337.55C456.303,337.545 458.765,335.083 458.77,332.09L458.77,60.66C458.765,57.667 456.303,55.205 453.31,55.2L260.21,55.2Z" style="fill:rgb(235,235,235);fill-rule:nonzero;"/>
        <rect x="92.03" y="285.87" width="126.42" height="8.92" style="fill:rgb(235,235,235);"/>
        <rect x="163.48" y="285.87" width="54.97" height="8.92" style="fill:rgb(224,224,224);"/>
        <rect x="92.03" y="294.79" width="18.68" height="87.61" style="fill:rgb(235,235,235);"/>
        <path d="M110.71,303.83L92.03,297.47L92.03,294.79L110.71,294.79L110.71,303.83Z" style="fill:rgb(224,224,224);fill-rule:nonzero;"/>
        <rect x="199.77" y="294.79" width="18.68" height="87.61" style="fill:rgb(224,224,224);"/>
        <rect x="163.48" y="294.79" width="18.68" height="87.61" style="fill:rgb(235,235,235);"/>
        <path d="M182.15,303.83L163.48,297.47L163.48,294.79L182.15,294.79L182.15,303.83Z" style="fill:rgb(224,224,224);fill-rule:nonzero;"/>
        <rect x="128.32" y="294.79" width="18.68" height="87.61" style="fill:rgb(224,224,224);"/>
        <rect x="71" y="87.17" width="159.33" height="135.67" style="fill:rgb(235,235,235);"/>
        <g transform="matrix(-1,-7.65714e-16,7.65714e-16,-1,462.44,310)">
            <rect x="230.33" y="87.17" width="1.78" height="135.67" style="fill:rgb(224,224,224);"/>
        </g>
        <g transform="matrix(-3.82857e-16,1,-1,-3.82857e-16,305.67,4.33)">
            <rect x="88.83" y="81.33" width="123.67" height="147.33" style="fill:rgb(245,245,245);"/>
        </g>
        <path d="M148.89,198.06C157.89,168.06 160.39,123.81 179.53,129.91C198.67,136.01 173.6,201.44 173.6,201.44L148.89,198.06Z" style="fill:white;fill-rule:nonzero;"/>
        <path d="M164.35,199.55C155.19,156.07 157.5,98.35 129.04,99.67C100.58,100.99 129.04,201.44 129.04,201.44L164.35,199.55Z" style="fill:white;fill-rule:nonzero;"/>
        <path d="M184.46,194.67L122.15,194.67C119.522,194.586 117.279,196.653 117.15,199.28C115.88,227.98 120.58,257.28 129.33,285.87L177.04,285.87C185.79,257.23 190.49,227.98 189.22,199.28C189.119,196.734 187.008,194.689 184.46,194.67Z" style="fill:rgb(235,235,235);fill-rule:nonzero;"/>
        <rect x="322.69" y="102.3" width="3.51" height="280.1" style="fill:rgb(224,224,224);"/>
        <rect x="405.18" y="102.3" width="3.51" height="280.1" style="fill:rgb(224,224,224);"/>
        <rect x="297.8" y="102.3" width="3.51" height="280.1" style="fill:rgb(235,235,235);"/>
        <rect x="380.29" y="102.3" width="3.51" height="280.1" style="fill:rgb(235,235,235);"/>
        <rect x="297.8" y="100.38" width="110.89" height="3.83" style="fill:rgb(235,235,235);"/>
        <rect x="297.8" y="168.97" width="110.89" height="3.83" style="fill:rgb(235,235,235);"/>
        <rect x="297.8" y="237.56" width="110.89" height="3.83" style="fill:rgb(235,235,235);"/>
        <rect x="297.8" y="306.15" width="110.89" height="3.83" style="fill:rgb(235,235,235);"/>
        <rect x="297.8" y="374.74" width="110.89" height="3.83" style="fill:rgb(235,235,235);"/>
        <rect x="383.8" y="100.38" width="24.89" height="3.83" style="fill:rgb(224,224,224);"/>
        <rect x="383.8" y="168.97" width="24.89" height="3.83" style="fill:rgb(224,224,224);"/>
        <rect x="383.8" y="237.56" width="24.89" height="3.83" style="fill:rgb(224,224,224);"/>
        <rect x="383.8" y="306.15" width="24.89" height="3.83" style="fill:rgb(224,224,224);"/>
        <rect x="383.8" y="374.74" width="24.89" height="3.83" style="fill:rgb(224,224,224);"/>
        <path d="M342.53,123.71L342.53,118.31L329.2,118.31L329.2,123.71C329.2,127.212 326.322,130.095 322.82,130.1C319.318,130.1 316.435,132.978 316.43,136.48L316.43,169L355.31,169L355.31,136.48C355.305,132.978 352.422,130.1 348.92,130.1C345.415,130.1 342.53,127.215 342.53,123.71Z" style="fill:rgb(240,240,240);fill-rule:nonzero;"/>
        <rect x="311.7" y="215.26" width="58.42" height="22.31" style="fill:rgb(240,240,240);"/>
        <g transform="matrix(-1,-7.65714e-16,7.65714e-16,-1,750.41,452.82)">
            <rect x="370.12" y="215.26" width="10.17" height="22.31" style="fill:rgb(230,230,230);"/>
        </g>
        <g transform="matrix(-1,-7.65714e-16,7.65714e-16,-1,750.41,452.82)">
            <rect x="370.12" y="225.18" width="10.17" height="2.46" style="fill:rgb(235,235,235);"/>
        </g>
        <rect x="311.7" y="225.18" width="58.42" height="2.46" style="fill:rgb(245,245,245);"/>
        <rect x="308.84" y="335.3" width="45.63" height="39.44" style="fill:rgb(240,240,240);"/>
        <g transform="matrix(-1,-7.65714e-16,7.65714e-16,-1,716.88,710.05)">
            <rect x="354.47" y="335.3" width="7.94" height="39.44" style="fill:rgb(230,230,230);"/>
        </g>
        <g transform="matrix(-1,-7.65714e-16,7.65714e-16,-1,716.88,710.05)">
            <rect x="354.47" y="352.85" width="7.94" height="4.35" style="fill:rgb(235,235,235);"/>
        </g>
        <rect x="308.84" y="352.85" width="45.63" height="4.35" style="fill:rgb(245,245,245);"/>
        <g transform="matrix(-1,-7.65714e-16,7.65714e-16,-1,716.88,698.05)">
            <rect x="354.47" y="348.25" width="7.94" height="1.55" style="fill:rgb(235,235,235);"/>
        </g>
        <rect x="308.84" y="348.25" width="45.63" height="1.55" style="fill:rgb(245,245,245);"/>
        <rect x="311.7" y="266.05" width="8.26" height="40.1" style="fill:rgb(240,240,240);"/>
        <rect x="311.7" y="280.34" width="8.26" height="11.52" style="fill:rgb(250,250,250);"/>
        <g transform="matrix(-1,-7.65714e-16,7.65714e-16,-1,668.03,572.21)">
            <rect x="319.97" y="266.05" width="28.1" height="40.1" style="fill:rgb(230,230,230);"/>
        </g>
        <rect x="323.39" y="260.87" width="9.33" height="45.28" style="fill:rgb(235,235,235);"/>
        <rect x="323.39" y="275.26" width="9.33" height="6.97" style="fill:rgb(250,250,250);"/>
        <rect x="323.39" y="286.9" width="9.33" height="6.97" style="fill:rgb(250,250,250);"/>
        <g transform="matrix(-1,-7.65714e-16,7.65714e-16,-1,697.18,567.02)">
            <rect x="332.72" y="260.87" width="31.73" height="45.28" style="fill:rgb(224,224,224);"/>
        </g>
        <rect x="338.08" y="266.05" width="5.03" height="40.1" style="fill:rgb(240,240,240);"/>
        <rect x="338.94" y="271.13" width="3.3" height="29.94" style="fill:rgb(250,250,250);"/>
        <g transform="matrix(-1,-7.65714e-16,7.65714e-16,-1,703.3,572.21)">
            <rect x="343.11" y="266.05" width="17.09" height="40.1" style="fill:rgb(230,230,230);"/>
        </g>
        <rect x="350.86" y="263.94" width="5.68" height="42.21" style="fill:rgb(235,235,235);"/>
        <rect x="350.86" y="277.35" width="5.68" height="6.5" style="fill:rgb(250,250,250);"/>
        <rect x="350.86" y="288.21" width="5.68" height="6.5" style="fill:rgb(250,250,250);"/>
        <g transform="matrix(-1,-7.65714e-16,7.65714e-16,-1,732.38,570.09)">
            <rect x="356.54" y="263.94" width="19.3" height="42.21" style="fill:rgb(224,224,224);"/>
        </g>
        <g transform="matrix(0.707107,-0.707107,0.707107,0.707107,-42.32,303.47)">
            <circle cx="345.16" cy="202.82" r="12.44" style="fill:rgb(245,245,245);"/>
        </g>
        <g transform="matrix(0.98708,-0.160226,0.160226,0.98708,-28.46,60.16)">
            <circle cx="358.92" cy="206.63" r="8.62" style="fill:rgb(235,235,235);"/>
        </g>
    </g>
    <g id="freepik--path--inject-5" transform="matrix(1.19487,0,0,1.19487,-48.446,-47.0186)">
        <ellipse cx="250" cy="416.24" rx="193.89" ry="11.32" style="fill:rgb(245,245,245);"/>
    </g>
    <g id="freepik--Box--inject-5" transform="matrix(1.19487,0,0,1.19487,-48.446,-47.0186)">
        <path d="M126.11,338.69L254.55,338.69L254.55,405C254.55,408.549 251.629,411.47 248.08,411.47L132.58,411.47C129.031,411.47 126.11,408.549 126.11,405L126.11,338.69Z" style="fill:rgb(64,123,255);fill-rule:nonzero;"/>
        <path d="M126.11,338.69L217,338.69L205.82,324.38C204.59,322.81 201.55,321.54 199.02,321.54L117.28,321.54C114.76,321.54 113.7,322.81 114.93,324.38L126.11,338.69Z" style="fill:rgb(64,123,255);fill-rule:nonzero;"/>
        <path d="M126.11,338.69L217,338.69L205.82,324.38C204.59,322.81 201.55,321.54 199.02,321.54L117.28,321.54C114.76,321.54 113.7,322.81 114.93,324.38L126.11,338.69Z" style="fill-opacity:0.2;fill-rule:nonzero;"/>
        <path d="M254.55,338.69L163.67,338.69L174.85,329.36C176.08,328.36 179.12,327.51 181.65,327.51L263.38,327.51C265.91,327.51 266.96,328.34 265.73,329.36L254.55,338.69Z" style="fill:rgb(64,123,255);fill-rule:nonzero;"/>
        <path d="M163.67,338.69L254.55,338.69L254.55,405C254.55,408.549 251.629,411.47 248.08,411.47L170.14,411.47C166.591,411.47 163.67,408.549 163.67,405L163.67,338.69Z" style="fill:white;fill-opacity:0.2;fill-rule:nonzero;"/>
        <path d="M137.39,338.69L137.39,384.17L140.53,381.69L142.74,384.17L144.66,381.41L146.63,384.17L149.37,382.1L152.39,384.17L152.39,338.69L137.39,338.69Z" style="fill:white;fill-opacity:0.5;fill-rule:nonzero;"/>
    </g>
    <g id="freepik--Character--inject-5" transform="matrix(1.19487,0,0,1.19487,-48.446,-47.0186)">
        <path d="M157.72,239.48L141.57,225.92" style="fill:none;fill-rule:nonzero;stroke:rgb(64,123,255);stroke-width:1px;"/>
        <path d="M166.09,246.51L161.17,242.37" style="fill:none;fill-rule:nonzero;stroke:rgb(64,123,255);stroke-width:1px;"/>
        <path d="M214.47,274.89L267.75,208.3L196.81,148.74L149.81,202.67L142.81,216.16C142.182,216.852 141.834,217.753 141.834,218.687C141.834,219.844 142.368,220.938 143.28,221.65L207.28,275.39C209.427,277.12 212.583,276.9 214.47,274.89Z" style="fill:rgb(64,123,255);fill-rule:nonzero;"/>
        <path d="M177.93,225.78L170.26,238.13L173.35,238.8L174.4,241.66L176.45,241.78L177.4,244.23L179.91,244.96L181.84,248.03L189.51,235.68L177.93,225.78Z" style="fill:white;fill-opacity:0.5;fill-rule:nonzero;"/>
        <path d="M265.43,206.35L217.65,259.65L149.78,202.67L196.81,148.74L265.43,206.35Z" style="fill-opacity:0.1;fill-rule:nonzero;"/>
        <path d="M265.43,206.35L217.65,259.65L237.43,261.11L284.47,207.18L265.43,206.35Z" style="fill:rgb(64,123,255);fill-rule:nonzero;"/>
        <path d="M265.43,206.35L217.65,259.65L237.43,261.11L284.47,207.18L265.43,206.35Z" style="fill-opacity:0.3;fill-rule:nonzero;"/>
        <path d="M177.78,147.9L129.99,201.21L149.78,202.67L196.81,148.74L177.78,147.9Z" style="fill:rgb(64,123,255);fill-rule:nonzero;"/>
        <path d="M177.78,147.9L129.99,201.21L149.78,202.67L196.81,148.74L177.78,147.9Z" style="fill-opacity:0.4;fill-rule:nonzero;"/>
        <path d="M250.72,222.76L265.43,206.35L196.81,148.74L188.03,169.9L250.72,222.76Z" style="fill-opacity:0.1;fill-rule:nonzero;"/>
        <path d="M149.78,202.67L196.81,148.74L188.03,169.9L154.91,206.98L149.78,202.67Z" style="fill-opacity:0.2;fill-rule:nonzero;"/>
        <path d="M282,106C282.19,106.64 282,107.27 281.58,107.39C281.16,107.51 280.67,107.09 280.48,106.45C280.29,105.81 280.48,105.18 280.9,105.05C281.32,104.92 281.82,105.36 282,106Z" style="fill:rgb(38,50,56);fill-rule:nonzero;"/>
        <path d="M282.07,107.26C281.881,109.46 281.39,111.624 280.61,113.69C281.692,114.065 282.885,113.944 283.87,113.36L282.07,107.26Z" style="fill:rgb(237,132,126);fill-rule:nonzero;"/>
        <path d="M283.33,101.73C283.415,101.681 283.479,101.603 283.51,101.51C283.527,101.466 283.536,101.419 283.536,101.372C283.536,101.207 283.428,101.06 283.27,101.01C282.082,100.555 280.744,100.708 279.69,101.42C279.616,101.495 279.575,101.596 279.575,101.701C279.575,101.92 279.755,102.101 279.975,102.101C280.043,102.101 280.11,102.083 280.17,102.05C281.012,101.498 282.071,101.386 283.01,101.75C283.115,101.788 283.231,101.781 283.33,101.73Z" style="fill:rgb(38,50,56);fill-rule:nonzero;"/>
        <path d="M304.24,110.28C304.68,115.58 305.99,125.28 309.12,127.52C309.12,127.52 308.38,133.89 297.12,135.52C284.78,137.34 290.32,130.26 290.32,130.26C296.81,127.66 295.9,122.69 294.04,118.17L298.8,112.71C300.63,110.69 304,107.57 304.24,110.28Z" style="fill:rgb(255,195,189);fill-rule:nonzero;"/>
        <path d="M313.15,130.11C314.15,129.2 312.15,125.56 310.92,125.05C307.7,123.7 294.53,125.05 289.58,129.3C288.749,130.723 288.605,132.449 289.19,133.99L313.15,130.11Z" style="fill:white;fill-rule:nonzero;"/>
        <path d="M355.09,397.41C354.433,397.709 353.683,397.731 353.01,397.47C352.741,397.257 352.632,396.896 352.74,396.57C352.794,396.305 352.962,396.078 353.2,395.95C354.28,395.32 356.95,396.15 357.06,396.19C357.135,396.21 357.19,396.273 357.2,396.35C357.211,396.431 357.171,396.51 357.1,396.55C356.461,396.904 355.787,397.192 355.09,397.41ZM353.63,396.19L353.4,396.29C353.262,396.365 353.163,396.497 353.13,396.65C353.06,397.01 353.2,397.12 353.24,397.15C353.72,397.49 355.35,397 356.48,396.43C355.559,396.141 354.586,396.059 353.63,396.19Z" style="fill:rgb(64,123,255);fill-rule:nonzero;"/>
        <path d="M357.06,396.56C357.027,396.57 356.993,396.57 356.96,396.56C355.96,396.36 353.87,395.11 353.76,394.17C353.728,393.866 353.917,393.579 354.21,393.49C354.49,393.365 354.81,393.365 355.09,393.49C356.25,393.97 357.15,396.21 357.18,396.3C357.22,396.36 357.22,396.44 357.18,396.5C357.152,396.538 357.107,396.56 357.06,396.56ZM354.46,393.83C354.431,393.821 354.399,393.821 354.37,393.83C354.14,393.93 354.15,394.05 354.16,394.1C354.22,394.66 355.64,395.67 356.65,396.04C356.35,395.39 355.65,394.13 354.94,393.83C354.786,393.771 354.614,393.771 354.46,393.83Z" style="fill:rgb(64,123,255);fill-rule:nonzero;"/>
        <path d="M296.48,408.15C295.41,408.15 294.38,408 294.03,407.52C293.847,407.263 293.847,406.917 294.03,406.66C294.165,406.426 294.388,406.257 294.65,406.19C296.04,405.82 298.96,407.48 299.08,407.55C299.146,407.582 299.188,407.648 299.188,407.721C299.188,407.817 299.115,407.899 299.02,407.91C298.182,408.066 297.332,408.147 296.48,408.15ZM295.16,406.53C295.031,406.525 294.903,406.542 294.78,406.58C294.62,406.616 294.48,406.713 294.39,406.85C294.25,407.1 294.3,407.22 294.39,407.29C294.78,407.83 296.89,407.84 298.39,407.62C297.394,407.051 296.297,406.681 295.16,406.53Z" style="fill:rgb(64,123,255);fill-rule:nonzero;"/>
        <path d="M299,407.92L298.92,407.92C297.92,407.47 295.92,405.66 296.07,404.72C296.07,404.5 296.27,404.22 296.81,404.17C297.205,404.126 297.6,404.249 297.9,404.51C298.97,405.38 299.19,407.63 299.2,407.72C299.211,407.79 299.18,407.861 299.12,407.9C299.083,407.92 299.041,407.927 299,407.92ZM297,404.54L296.88,404.54C296.52,404.54 296.5,404.72 296.49,404.76C296.4,405.33 297.76,406.76 298.78,407.37C298.693,406.416 298.308,405.513 297.68,404.79C297.493,404.625 297.25,404.535 297,404.54Z" style="fill:rgb(64,123,255);fill-rule:nonzero;"/>
        <path d="M308.18,407.72L299.83,407.72L299,388.4L307.35,388.4L308.18,407.72Z" style="fill:rgb(255,195,189);fill-rule:nonzero;"/>
        <path d="M366.83,394.53L359.14,397.18L351.16,378.97L358.85,376.32L366.83,394.53Z" style="fill:rgb(255,195,189);fill-rule:nonzero;"/>
        <path d="M357.31,395.27L366.31,392.52C366.637,392.42 366.992,392.562 367.16,392.86L370.91,399.46C371.012,399.643 371.066,399.849 371.066,400.059C371.066,400.604 370.703,401.087 370.18,401.24C367.03,402.15 365.46,402.43 361.52,403.64C359.09,404.38 352.97,406.7 349.52,407.39C346.07,408.08 344.96,404.78 346.3,404.19C352.3,401.54 354.76,398.53 356.19,396.19C356.439,395.758 356.838,395.431 357.31,395.27Z" style="fill:rgb(38,50,56);fill-rule:nonzero;"/>
        <path d="M299.89,406.75L309,406.75C309.338,406.755 309.632,406.991 309.71,407.32L311.36,414.74C311.38,414.829 311.391,414.919 311.391,415.01C311.391,415.674 310.844,416.22 310.181,416.22C310.174,416.22 310.167,416.22 310.16,416.22C306.87,416.17 302.16,415.97 297.99,415.97C293.16,415.97 291.13,416.24 285.46,416.24C282.04,416.24 281.09,412.78 282.52,412.46C289.05,411.03 292.24,410.88 297.88,407.4C298.478,407.004 299.173,406.779 299.89,406.75Z" style="fill:rgb(38,50,56);fill-rule:nonzero;"/>
        <path d="M324.14,132.84C326.57,135.07 328.67,137.3 330.85,139.63C333.03,141.96 335.05,144.37 337.01,146.94C339.057,149.551 340.915,152.305 342.57,155.18C343.474,156.765 344.257,158.416 344.91,160.12C345.08,160.59 345.25,161.04 345.39,161.55C345.554,162.066 345.691,162.59 345.8,163.12L345.97,163.95L346.09,164.87C346.202,165.713 346.202,166.567 346.09,167.41C345.86,169.001 345.272,170.519 344.37,171.85C343.712,172.822 342.939,173.711 342.07,174.5C340.672,175.768 339.144,176.884 337.51,177.83C334.633,179.476 331.622,180.878 328.51,182.02C322.607,184.211 316.524,185.884 310.33,187.02L308.58,181.02C314.01,178.67 319.51,176.13 324.58,173.42C327.048,172.125 329.424,170.662 331.69,169.04C332.634,168.369 333.502,167.598 334.28,166.74C334.516,166.486 334.715,166.2 334.87,165.89C334.95,165.72 334.87,165.74 334.77,166.1C334.7,166.77 334.71,166.25 334.55,165.89C334.5,165.72 334.41,165.49 334.32,165.27C334.23,165.05 334.12,164.8 334.01,164.56C333.468,163.469 332.864,162.411 332.2,161.39C330.655,159.097 328.986,156.89 327.2,154.78C325.36,152.6 323.42,150.43 321.43,148.3C319.44,146.17 317.35,144.02 315.43,142.04L324.14,132.84Z" style="fill:rgb(255,195,189);fill-rule:nonzero;"/>
        <path d="M310.87,180.07L303,182.45L308.06,190.77C308.06,190.77 312.71,188.85 313.74,184.9L310.87,180.07Z" style="fill:rgb(255,195,189);fill-rule:nonzero;"/>
        <path d="M299.82,185.4L302.92,192.26L308.01,190.78L302.95,182.45L299.82,185.4Z" style="fill:rgb(255,195,189);fill-rule:nonzero;"/>
        <path d="M305.7,135.1C304.95,143.1 321.87,155.48 321.87,155.48L338.16,144.33C335.331,139.113 331.196,134.719 326.16,131.58C316.82,125.6 306.64,125.16 305.7,135.1Z" style="fill:rgb(64,123,255);fill-rule:nonzero;"/>
        <path d="M305.7,135.1C304.95,143.1 321.87,155.48 321.87,155.48L338.16,144.33C335.331,139.113 331.196,134.719 326.16,131.58C316.82,125.6 306.64,125.16 305.7,135.1Z" style="fill:white;fill-opacity:0.3;fill-rule:nonzero;"/>
        <path d="M278,134.46C278,134.46 270.69,145.68 288.05,205.86L332.19,199.34C331.57,193.24 324.19,166.63 323.94,137.54C323.899,131.864 319.217,127.216 313.54,127.216C313.36,127.216 313.18,127.221 313,127.23C311.72,127.3 310.4,127.39 309.09,127.52C302.789,128.082 296.525,129.007 290.33,130.29C286.119,131.361 281.997,132.756 278,134.46Z" style="fill:rgb(64,123,255);fill-rule:nonzero;"/>
        <path d="M278,134.46C278,134.46 270.69,145.68 288.05,205.86L332.19,199.34C331.57,193.24 324.19,166.63 323.94,137.54C323.899,131.864 319.217,127.216 313.54,127.216C313.36,127.216 313.18,127.221 313,127.23C311.72,127.3 310.4,127.39 309.09,127.52C302.789,128.082 296.525,129.007 290.33,130.29C286.119,131.361 281.997,132.756 278,134.46Z" style="fill:white;fill-opacity:0.3;fill-rule:nonzero;"/>
        <path d="M276.92,153.8L277.07,153.63L287.45,154.55C289.03,161.25 283.25,170.39 280.2,174.63C278.732,167.751 277.637,160.797 276.92,153.8Z" style="fill-opacity:0.2;fill-rule:nonzero;"/>
        <path d="M299,388.41L299.43,398.37L307.78,398.37L307.35,388.41L299,388.41Z" style="fill-opacity:0.2;fill-rule:nonzero;"/>
        <path d="M358.85,376.32L351.16,378.97L355.28,388.36L362.97,385.71L358.85,376.32Z" style="fill-opacity:0.2;fill-rule:nonzero;"/>
        <path d="M303.15,98.32C304.99,106.39 306.47,111.02 303.66,116.32C299.44,124.21 288.58,123.45 284.37,116.09C280.58,109.46 278.2,97.38 285.04,91.94C287.046,90.33 289.542,89.451 292.115,89.451C297.4,89.451 302.013,93.159 303.15,98.32Z" style="fill:rgb(255,195,189);fill-rule:nonzero;"/>
        <path d="M286.94,106.23L283.87,108.11L284.16,97.61C282.181,97.695 280.227,97.129 278.6,96C279.71,94.94 296.99,88.89 302.38,89.94C302.94,89.71 303.62,88.67 303.62,88.67C303.62,88.67 303.83,89.98 302.92,90.48C303.58,90.35 305.23,90.67 305.69,91.64C304.933,91.433 304.129,91.479 303.4,91.77C302.671,92.061 309.4,92.68 307.27,101C304.88,110.17 305.67,115.44 305.67,115.44C305.67,115.44 301.21,118.89 297.33,118.25C293.19,113.69 287.21,108.21 286.94,106.23Z" style="fill:rgb(38,50,56);fill-rule:nonzero;"/>
        <path d="M281.06,95.17C276.19,95.17 274.44,92.79 273.19,90.79C276.69,90.42 283.98,88.17 289.39,87.79C294.8,87.41 300.73,88.42 298.94,90.79C297.15,93.16 281.06,95.17 281.06,95.17Z" style="fill:rgb(38,50,56);fill-rule:nonzero;"/>
        <path d="M282.13,93C278.13,92.44 274.23,88.67 277.23,85.06C278.34,87.71 285.83,87.4 291.15,86.29C298.15,84.83 303,87.19 300.52,91.96C299.16,94.57 282.13,93 282.13,93Z" style="fill:rgb(38,50,56);fill-rule:nonzero;"/>
        <path d="M291.26,103.84C291.832,105.814 291.741,107.923 291,109.84C290,112.35 287.78,111.84 286.62,109.67C285.62,107.67 284.86,104.04 286.56,102.23C288.26,100.42 290.54,101.47 291.26,103.84Z" style="fill:rgb(255,195,189);fill-rule:nonzero;"/>
        <path d="M303.71,203.55C303.71,203.55 310.87,264.5 316.07,288.38C321.76,314.54 349.83,385.86 349.83,385.86L363.83,381.02C363.83,381.02 345.83,327.32 341.05,290.75C337.38,262.67 332.15,199.34 332.15,199.34L303.71,203.55Z" style="fill:rgb(38,50,56);fill-rule:nonzero;"/>
        <path d="M346.25,381.38C346.18,381.38 349.12,387.38 349.12,387.38L365.47,382.07L363.55,377.19L346.25,381.38Z" style="fill:rgb(64,123,255);fill-rule:nonzero;"/>
        <path d="M307.66,234.82C309.9,251.76 312.77,271.82 315.29,284.63C319,265 319.87,240.21 307.66,234.82Z" style="fill-opacity:0.3;fill-rule:nonzero;"/>
        <path d="M288.05,205.86C288.05,205.86 282.11,263.12 283.05,288.56C283.99,315.02 296.35,396.44 296.35,396.44L310.48,396.44C310.48,396.44 307.88,316.56 308.48,290.58C309.17,262.25 319.79,201.17 319.79,201.17L288.05,205.86Z" style="fill:rgb(38,50,56);fill-rule:nonzero;"/>
        <path d="M293.6,390.81C293.54,390.81 294.4,396.67 294.4,396.67L311.59,396.67L312.06,391.44L293.6,390.81Z" style="fill:rgb(64,123,255);fill-rule:nonzero;"/>
        <path d="M285.31,148.52C283.75,151 282.17,153.23 280.53,155.52C278.89,157.81 277.17,160.02 275.42,162.22C271.853,166.683 267.987,170.899 263.85,174.84C262.73,175.84 261.7,176.84 260.49,177.75L259.61,178.46L259.17,178.81C259.01,178.94 258.94,179.01 258.61,179.25C257.619,179.957 256.531,180.516 255.38,180.91C253.597,181.519 251.733,181.856 249.85,181.91C248.257,181.963 246.662,181.893 245.08,181.7C239.296,180.942 233.654,179.345 228.33,176.96L230.06,170.96C235.176,171.567 240.329,171.814 245.48,171.7C246.619,171.64 247.754,171.517 248.88,171.33C249.728,171.206 250.552,170.95 251.32,170.57C251.56,170.44 251.69,170.31 251.66,170.28C251.63,170.25 251.79,170.15 251.88,170.06L252.22,169.75L252.89,169.12C253.79,168.32 254.64,167.35 255.52,166.47C257.25,164.61 258.97,162.7 260.6,160.67C262.23,158.64 263.88,156.6 265.48,154.5C267.08,152.4 268.63,150.27 270.19,148.14C271.75,146.01 273.27,143.77 274.71,141.7L285.31,148.52Z" style="fill:rgb(255,195,189);fill-rule:nonzero;"/>
        <path d="M291.12,145.87C294.48,156.87 274.97,169.06 274.97,169.06L262.29,152.91C265.148,147.585 268.677,142.648 272.79,138.22C281.42,128.83 288.56,137.5 291.12,145.87Z" style="fill:rgb(64,123,255);fill-rule:nonzero;"/>
        <path d="M291.12,145.87C294.48,156.87 274.97,169.06 274.97,169.06L262.29,152.91C265.148,147.585 268.677,142.648 272.79,138.22C281.42,128.83 288.56,137.5 291.12,145.87Z" style="fill:white;fill-opacity:0.3;fill-rule:nonzero;"/>
        <path d="M233,171.33L222.73,169.45L223.81,178.33C223.81,178.33 229.15,181.33 233.02,176.64L233,171.33Z" style="fill:rgb(255,195,189);fill-rule:nonzero;"/>
        <path d="M218.77,171.45L220.99,177.86L223.79,178.33L222.71,169.45L218.77,171.45Z" style="fill:rgb(255,195,189);fill-rule:nonzero;"/>
    </g>
</svg>
